<?xml version="1.0" encoding="UTF-8" standalone="no"?>
<svg
   fill="none"
   viewBox="0 0 394 80"
   version="1.1"
   id="svg597"
   sodipodi:docname="zoglog.svg"
   xml:space="preserve"
   inkscape:version="1.2.2 (b0a84865, 2022-12-01)"
   xmlns:inkscape="http://www.inkscape.org/namespaces/inkscape"
   xmlns:sodipodi="http://sodipodi.sourceforge.net/DTD/sodipodi-0.dtd"
   xmlns="http://www.w3.org/2000/svg"
   xmlns:svg="http://www.w3.org/2000/svg"><defs
     id="defs601" /><sodipodi:namedview
     id="namedview599"
     pagecolor="#505050"
     bordercolor="#ffffff"
     borderopacity="1"
     inkscape:showpageshadow="0"
     inkscape:pageopacity="0"
     inkscape:pagecheckerboard="1"
     inkscape:deskcolor="#505050"
     showgrid="false"
     inkscape:zoom="3.1624365"
     inkscape:cx="135.02247"
     inkscape:cy="45.060193"
     inkscape:window-width="2512"
     inkscape:window-height="1205"
     inkscape:window-x="1691"
     inkscape:window-y="51"
     inkscape:window-maximized="0"
     inkscape:current-layer="svg597" /><g
     id="g1591"
     transform="matrix(0.96664927,0,0,1,-9.5132682,-3.1636107)"><path
       d="m 0,0 c 5.4923921,3.5471699 10.137206,7.9937119 13,13.9375 0.04687,2.980469 0.04687,2.980469 -0.25,6.1875 -0.164358,5.247719 0.357056,7.621326 3.75,11.625 4.347543,5.416755 4.50822,10.688254 4.046875,17.339844 C 19.325468,57.683317 15.629853,63.054398 9.0625,68.5625 2.2884925,73.078505 -5.1811384,72.584296 -13,71.9375 c -10.081182,-2.436407 -17.553899,-10.556932 -23,-19 -2.555321,-4.285321 -4.64263,-7.858958 -4,-13 -0.66,0 -1.32,0 -2,0 0.103125,1.0725 0.20625,2.145 0.3125,3.25 -0.07777,8.803487 -4.224756,16.086159 -10.1875,22.3125 -6.501745,5.965518 -11.371926,8.011643 -20.292969,7.71875 C -82.948542,72.148128 -91.289733,67.428084 -98.3125,59.25 -105.72929,49.331334 -107.2098,39.542132 -105.67969,27.394531 -103.7891,17.408797 -98.906477,10.305216 -91,3.9375 -82.657008,-1.3911577 -72.873764,-1.0169074 -63.355469,0.3046875 -55.109755,2.4130486 -49.446065,9.4006581 -45,16.3125 c 1.334117,2.251322 2.162351,4.112054 3,6.625 0.402187,-0.926191 0.402187,-0.926191 0.8125,-1.871094 4.251012,-9.18722 9.79192,-17.0785805 19.273438,-21.32031225 C -15.099162,-2.1449041 -6.7442003,-2.4206046 0,0 Z m -72,30.9375 c -2.145792,1.559012 -2.145792,1.559012 -4,4 -0.334179,3.667521 -0.334179,3.667521 0,7 0.99,0.495 0.99,0.495 2,1 3.16314,-1.243748 3.16314,-1.243748 5,-4 0.04022,-2.332987 0.0432,-4.667067 0,-7 -0.99,-0.33 -1.98,-0.66 -3,-1 z"
       fill="#e19728"
       transform="translate(174,6.0625)"
       id="path1159" /><path
       d="m 0,0 c 5.5495003,3.0270001 9.0357012,9.1071037 11,15 0.125056,2.783222 0.189807,5.529104 0.1875,8.3125 6.45e-4,0.795835 0.0013,1.59167 0.002,2.411621 C 11.125956,32.946928 10.280906,39.886399 9,47 c 1.024805,-0.04641 2.049609,-0.09281 3.105469,-0.140625 1.360648,-0.03753 2.721327,-0.07393 4.082031,-0.109375 0.673535,-0.03352 1.34707,-0.06703 2.041016,-0.101563 C 23.270622,46.550055 25.287948,47.761409 29,51 c 0.362388,-1.169824 0.724775,-2.339648 1.098145,-3.544922 1.359491,-4.373605 2.739906,-8.740376 4.126464,-13.105469 0.595174,-1.883639 1.184795,-3.769042 1.768555,-5.65625 0.844197,-2.725631 1.708718,-5.444115 2.577148,-8.162109 0.253392,-0.833661 0.506783,-1.667322 0.767853,-2.526245 C 41.543359,11.213088 44.871138,5.6348311 50.375,1 c 4.863096,-1.85260801 8.945866,-1.57090544 13.75,0.0625 11.303612,7.6176518 14.678723,20.652352 17.625,33.25 0.454395,1.872686 0.454395,1.872686 0.917969,3.783203 5.277008,21.87027 5.277008,21.87027 1.644531,29.404297 -2.956782,3.196521 -4.941937,5.276114 -9.421875,5.699219 C 71.36197,73.086728 68.920439,72.764432 66.15625,70.46875 64.633806,68.707491 63.289786,66.936793 62,65 c -0.66,-0.99 -1.32,-1.98 -2,-3 0,-0.99 0,-1.98 0,-3 -1.949069,0.59533 -1.949069,0.59533 -4,2 -0.433125,0.9075 -0.86625,1.815 -1.3125,2.75 C 52.517324,67.929597 50.116598,70.668055 46,73 c -3.207816,0.836821 -5.803316,0.903411 -9,0 -2.506852,-1.787673 -4.030494,-3.575993 -6,-6 -0.814043,0.740566 -0.814043,0.740566 -1.644531,1.496094 -0.71543,0.640664 -1.43086,1.281328 -2.167969,1.941406 -0.707695,0.638086 -1.415391,1.276172 -2.144531,1.933594 C 19.778461,76.568607 12.360462,75.361312 6,75 -1.5641974,73.875174 -6.9989375,70.790119 -12,65 c -3.696493,-5.452787 -6.096438,-10.477036 -6.161133,-17.122559 -0.0096,-0.801182 -0.01921,-1.602365 -0.02911,-2.427826 -0.0064,-1.286036 -0.0064,-1.286036 -0.01288,-2.598053 -0.0057,-0.890148 -0.0114,-1.780296 -0.01727,-2.697418 -0.0094,-1.881122 -0.01598,-3.76226 -0.01984,-5.643402 -0.0097,-2.868459 -0.04075,-5.736201 -0.07227,-8.604492 -0.0065,-1.830725 -0.01178,-3.661455 -0.01563,-5.492188 -0.01235,-0.853309 -0.02469,-1.706618 -0.03741,-2.585784 C -18.340959,11.214516 -16.932115,7.1161254 -12.375,2.125 -8.0684158,-0.586553 -4.9617963,-0.9665837 0,0 Z"
       fill="#e29b2b"
       transform="translate(271,6)"
       id="path1161" /><path
       d="M 0,0 C 0.74137207,-0.00999023 1.4827441,-0.01998047 2.246582,-0.03027344 8.0801437,0.06289319 12.113606,1.3912496 16.394531,5.375 c 0.571055,0.680625 1.14211,1.36125 1.730469,2.0625 0.875918,1.0209375 0.875918,1.0209375 1.769531,2.0625 3.091493,4.224189 3.086627,8.922568 2.417969,13.9375 -2.711447,7.868263 -7.991538,14.462901 -13,21 0.6522656,0.05156 1.304531,0.103125 1.976563,0.15625 7.031125,0.912594 7.031125,0.912594 9.988281,3.6875 3.767427,5.084645 5.874136,8.654154 5.035156,15.15625 -4.035052,6.537502 -8.829448,9.6864 -16.167969,11.550781 C 0.83883807,76.464357 -12.368445,77.355394 -20.6875,72.4375 -25.576783,68.054287 -29.315341,64.084658 -30,57.375 c 0.737583,-9.29355 5.364138,-16.020023 11.3125,-22.9375 -1.19625,-0.495 -2.3925,-0.99 -3.625,-1.5 -4.87643,-2.46853 -7.890474,-5.633756 -10.375,-10.5 -1.280307,-4.315642 -1.577108,-7.633164 0.1875,-11.8125 0.598125,-0.721875 1.19625,-1.44375 1.8125,-2.1875 0.540117,-0.6587109 1.080234,-1.3174219 1.636719,-1.9960938 3.065484,-2.599328 6.150872,-3.4031414 9.988281,-4.2539062 0.738391,-0.1676587 1.476782,-0.3353174 2.237549,-0.5080566 C -11.216083,0.51896754 -5.7228028,0.04507078 0,0 Z"
       fill="#de9628"
       transform="translate(43.6875,5.5625)"
       id="path1163" /><path
       d="m 0,0 c 3.0060917,1.2603592 3.0060917,1.2603592 6,-0.0625 4.564221,1.9895321 6.910468,4.5113752 9,9 0,2.084271 -0.06999,4.169045 -0.1875,6.25 -0.206811,5.24119 0.296053,7.561812 3.6875,11.5625 4.347543,5.416755 4.50822,10.688254 4.046875,17.339844 C 21.325468,52.683317 17.629853,58.054398 11.0625,63.5625 4.2884925,68.078505 -3.1811384,67.584296 -11,66.9375 c -9.970653,-2.409695 -17.726595,-10.524884 -23,-19 -0.34563,-0.54052 -0.69126,-1.08104 -1.047363,-1.637939 -3.369568,-5.84183 -3.495372,-11.040185 -3.327637,-17.674561 0.0013,-0.988066 0.0026,-1.976133 0.0039,-2.994141 0.08908,-7.270346 0.08908,-7.270346 2.371094,-10.693359 0.66,0 1.32,0 2,0 0.185625,-0.66 0.37125,-1.32 0.5625,-2 2.635465,-5.5001007 6.705313,-10.6260638 12.4375,-13 C -14.352846,-1.683757 -6.5785776,-2.0671539 0,0 Z"
       fill="#e69a29"
       transform="translate(172,11.0625)"
       id="path1165" /><path
       d="m 0,0 c 8.4231059,4.3837726 14.124127,12.161443 17.101562,21.09375 0.147031,2.434488 0.221054,4.873748 0.25,7.3125 0.02578,1.295508 0.05156,2.591016 0.07813,3.925781 -0.525637,6.026054 -2.967354,9.825393 -7.203124,14.011719 -0.6574224,0.665156 -1.3148442,1.330312 -1.992188,2.015625 -3.6527973,2.970407 -7.0249643,4.011221 -11.6953125,3.921875 -0.7437891,-0.0064 -1.4875781,-0.01289 -2.2539062,-0.01953 -2.1640562,-0.166466 -4.0989657,-0.577088 -6.1835943,-1.167969 0.04641,0.724453 0.09281,1.448906 0.140625,2.195312 0.228975,6.133247 0.232486,10.077001 -4.140625,14.804688 -3.077076,2.649705 -4.726248,2.982049 -8.812499,3.25 -4.879488,-0.831731 -7.329321,-4.002479 -10.425782,-7.632813 -5.302021,-7.876617 -5.164095,-14.390074 -5.011718,-23.742187 0.0052,-1.242656 0.01031,-2.485313 0.01563,-3.765625 C -39.908374,9.326642 -39.908374,9.326642 -33.40625,2.5351563 -25.470416,-4.4333742 -9.6286116,-3.5735054 0,0 Z"
       fill="#e69a28"
       transform="translate(234.89844,7.90625)"
       id="path1167" /><path
       d="M 0,0 C 2.8125,2.25 2.8125,2.25 5,5 5.5310937,5.5903906 6.0621875,6.1807812 6.609375,6.7890625 9.7769721,11.825186 8.5808841,18.920842 7.5195312,24.546875 5.8260997,29.67015 3.0369752,33.195199 -0.47363281,37.177979 -7.1678622,44.817357 -9.2243105,50.134197 -9.7265625,60.222656 -10.127885,65.766636 -11.613232,69.837629 -15.828125,73.65625 -19.700867,76.052335 -23.625497,75.953683 -28,75 c -5.107431,-3.504059 -7.362797,-9.219928 -9,-15 -0.172487,-1.975756 -0.344316,-3.953302 -0.415283,-5.935303 C -37.853825,43.376652 -42.370748,37.016847 -48.71582,28.730469 -52.959022,23.012634 -55.856294,17.271208 -55.433594,10.046875 -54.735161,6.7497679 -53.153077,4.533032 -51,2 c 3.773134,-1.88656719 7.899813,-1.62273519 12,-1 6.480671,3.1961204 9.633175,9.943885 13,16 0.66,0.99 1.32,1.98 2,3 0.484688,-0.857227 0.969375,-1.714453 1.46875,-2.597656 C -11.169484,-2.1972755 -11.169484,-2.1972755 0,0 Z"
       fill="#e69a29"
       transform="translate(409,6)"
       id="path1169" /><path
       d="m 0,0 c 11.303612,7.6176517 14.678723,20.652352 17.625,33.25 0.30293,1.248457 0.605859,2.496914 0.917969,3.783203 5.277008,21.87027 5.277008,21.87027 1.644531,29.404297 -2.956782,3.196521 -4.941937,5.276114 -9.421875,5.699219 C 7.2369703,72.024228 4.795439,71.701932 2.03125,69.40625 0.50880564,67.644991 -0.83521421,65.874293 -2.125,63.9375 c -0.99,-1.485 -0.99,-1.485 -2,-3 0,-0.99 0,-1.98 0,-3 -1.9490685,0.59533 -1.9490685,0.59533 -4,2 -0.6496875,1.36125 -0.6496875,1.36125 -1.3125,2.75 -2.172975,4.184988 -4.572975,6.906786 -8.6875,9.25 -3.23976,0.910109 -5.770642,0.97051 -9,0 -2.796041,-1.985445 -5.025619,-4.193966 -7,-7 0,-0.66 0,-1.32 0,-2 0.99,0.33 1.98,0.66 3,1 0,0.66 0,1.32 0,2 1.749221,0.08143 3.499545,0.139385 5.25,0.1875 0.974531,0.03481 1.949063,0.06961 2.953125,0.105469 3.295667,-0.345217 4.468386,-0.96448 6.796875,-3.292969 1.536074,-2.471399 1.536074,-2.471399 2.75,-5.1875 0.427969,-0.901055 0.855937,-1.802109 1.296875,-2.730469 0.314531,-0.68707 0.629062,-1.37414 0.953125,-2.082031 1.98,0 3.96,0 6,0 0.7057617,1.355449 0.7057617,1.355449 1.4257812,2.738281 0.6286176,1.191559 1.2575399,2.382957 1.8867188,3.574219 0.4630957,0.892354 0.4630957,0.892354 0.93554688,1.802734 C 1.3896042,65.50325 1.3896042,65.50325 4.875,68.9375 c 2.5020365,0.575715 2.5020365,0.575715 5.1875,0.6875 0.901055,0.06574 1.802109,0.131484 2.730469,0.199219 0.68707,0.03738 1.37414,0.07476 2.082031,0.113281 0,-0.66 0,-1.32 0,-2 0.99,-0.66 1.98,-1.32 3,-2 0.340253,-2.506049 0.340253,-2.506049 0.109375,-5.417969 -0.05027,-1.089902 -0.100547,-2.179804 -0.152344,-3.302734 C 17.729551,55.500732 17.729551,55.500732 17.625,53.75 17.572148,52.625293 17.519297,51.500586 17.464844,50.341797 17.18565,44.81961 16.790592,39.391585 15.875,33.9375 c -0.66,0 -1.32,0 -2,0 -2.271415,-5.39461 -2.204134,-10.261577 -2,-16 -0.66,0 -1.32,0 -2,0 -0.495,-1.485 -0.495,-1.485 -1,-3 -0.66,-0.33 -1.32,-0.66 -2,-1 1.2232207,7.040132 1.2232207,7.040132 3.4375,13.8125 3.804502,9.685952 6.28206,20.802441 4.5625,31.1875 -1.804687,2.382812 -1.804687,2.382812 -4,4 -3.7728253,0.33095 -6.4073555,0.197548 -10,-1 -2.3211439,-3.352763 -2.5412526,-7.02419 -3,-11 -3.63,0 -7.26,0 -11,0 -0.556875,1.4025 -1.11375,2.805 -1.6875,4.25 -1.81567,4.031296 -3.295349,6.601291 -7.3125,8.75 -3.625,0.5 -3.625,0.5 -7,0 -2.297709,-2.260734 -2.955114,-3.571486 -3.292969,-6.796875 0.0348,-0.974531 0.06961,-1.949062 0.105469,-2.953125 0.02707,-0.984844 0.05414,-1.969688 0.08203,-2.984375 0.0348,-0.747656 0.06961,-1.495312 0.105469,-2.265625 -0.66,1.98 -1.32,3.96 -2,6 -0.66,-0.33 -1.32,-0.66 -2,-1 2.519806,-8.63214 5.238316,-17.201172 8.023682,-25.750732 0.526947,-1.627813 1.047437,-3.257729 1.561523,-4.889649 0.753768,-2.389686 1.529268,-4.771372 2.309326,-7.152588 0.222107,-0.719956 0.444213,-1.439913 0.67305,-2.181686 1.94456,-5.8134207 5.015799,-10.9653992 10.381227,-14.20031753 C -8.705076,-2.0358377 -4.4213964,-1.5032748 0,0 Z"
       fill="#e09728"
       transform="translate(335.125,7.0625)"
       id="path1171" /><path
       d="m 0,0 c 3.3748341,-0.08767555 6.7493721,-0.14061628 10.125,-0.1875 1.426992,-0.0377051 1.426992,-0.0377051 2.882813,-0.0761719 C 19.252069,-0.3287162 23.826063,0.10500785 28.644531,4.5 32.304038,9.1998353 33.430384,12.634236 33.335937,18.480469 32.142808,27.428938 25.30933,35.070205 20,42 c 0.652266,0.05156 1.304531,0.103125 1.976562,0.15625 7.031126,0.912594 7.031126,0.912594 9.988282,3.6875 C 35.732271,50.928395 37.83898,54.497904 37,61 32.964948,67.537502 28.170552,70.6864 20.832031,72.550781 11.526338,74.026857 -1.6809453,74.917894 -10,70 -14.889283,65.616787 -18.627841,61.647158 -19.3125,54.9375 -18.904553,49.797374 -17.524688,45.500882 -15,41 c 2.75,-2.125 2.75,-2.125 5,-3 -0.470056,3.102368 -1.190226,5.39567 -2.5625,8.25 -1.807478,4.051245 -2.344671,8.383126 -1.4375,12.75 0.99,0.66 1.98,1.32 3,2 0,0.66 0,1.32 0,2 9.8540836,2.463521 24.707515,2.802065 33.828125,-1.953125 C 25.140387,59.59901 26.764841,58.470318 28,56 c 0.166703,-3.041739 0.166703,-3.041739 0,-6 -1.022089,-1.24302 -1.022089,-1.24302 -3.179688,-1.132813 -1.334179,0.0039 -1.334179,0.0039 -2.695312,0.0078 -0.884297,-0.0026 -1.768594,-0.0052 -2.679688,-0.0078 C 16.860937,48.899514 16.860937,48.899514 14,50 12.438816,50.067409 10.874975,50.085145 9.3125,50.0625 8.1001367,50.048965 8.1001367,50.048965 6.8632812,50.035156 6.2483984,50.023555 5.6335156,50.011953 5,50 5.5550727,46.213493 6.5381569,43.80604 8.765625,40.707031 9.6067383,39.513037 9.6067383,39.513037 10.464844,38.294922 11.053945,37.475723 11.643047,36.656523 12.25,35.8125 21.690734,23.563938 21.690734,23.563938 24,9 22.676181,6.4847437 21.927865,5.3002585 19.202148,4.4182129 16.786137,3.959385 14.472673,3.7884678 12.015625,3.6835938 11.081055,3.6416992 10.146484,3.5998047 9.1835938,3.5566406 8.2155078,3.5173242 7.2474219,3.4780078 6.25,3.4375 5.2664453,3.3943164 4.2828906,3.3511328 3.2695313,3.3066406 0.84648725,3.2007795 -1.5766554,3.0986983 -4,3 -2.68,2.67 -1.36,2.34 0,2 0,1.34 0,0.68 0,0 Z"
       fill="#f6c04c"
       transform="translate(33,8)"
       id="path1173" /><path
       d="M 0,0 C 0.87333984,-0.02900391 1.7466797,-0.05800781 2.6464844,-0.08789062 11.664573,-0.17544488 17.95308,3.1865332 24.480469,9.2890625 30.95705,16.442301 31.860371,23.341916 31.78125,32.796875 31.003835,38.627487 28.569409,42.478824 24.4375,46.5625 23.780078,47.227656 23.122656,47.892812 22.445312,48.578125 18.792515,51.548532 15.420348,52.589346 10.75,52.5 10.006211,52.493555 9.2624219,52.487109 8.4960938,52.480469 6.3320376,52.314003 4.3971281,51.903381 2.3125,51.3125 2.358906,52.036953 2.405312,52.761406 2.453125,53.507812 2.6820995,59.641059 2.6856107,63.584813 -1.6875,68.3125 -4.0323106,70.331642 -5.5611765,71.279373 -8.6796875,71.371094 -11.657956,71.114723 -14.087043,70.73282 -16.5625,69 c -1.25459,-1.881885 -2.328421,-3.56329 -3.125,-5.6875 0.33,-0.99 0.66,-1.98 1,-3 0.33,0.33 0.66,0.66 1,1 3.074841,0.492723 5.930033,0.537647 9,0 4.4897883,-4.153054 4.5815777,-9.004165 4.921875,-14.804688 0.025781,-0.724453 0.051563,-1.448906 0.078125,-2.195312 1.1459766,-0.0026 2.2919531,-0.0052 3.47265625,-0.0078 9.56709855,0.185588 9.56709855,0.185588 17.90234375,-3.7422 1.450218,-1.466029 1.450218,-1.466029 2.625,-3.25 0.810176,-1.109883 0.810176,-1.109883 1.636719,-2.242188 2.826626,-5.718047 2.45839,-14.095674 0.636718,-20.187499 C 20.595554,11.112411 18.003412,9.2604816 14.3125,7.3125 c 0,-0.66 0,-1.32 0,-2 C 10.593611,4.4492399 7.1695351,4.1952844 3.3554688,4.2148437 2.2436523,4.2180664 1.1318359,4.2212891 -0.01367188,4.2246094 -1.7394043,4.2371777 -1.7394043,4.2371777 -3.5,4.25 -4.6698242,4.25451 -5.8396484,4.25902 -7.0449219,4.263672 -9.9258336,4.2754307 -12.80664,4.2918657 -15.6875,4.3125 -11.234405,-0.56469947 -6.1883243,0.06702156 0,0 Z"
       fill="#fdca53"
       transform="translate(220.6875,7.6875)"
       id="path1175" /><path
       d="m 0,0 c 4.8066314,1.0060391 7.4327077,2.6513509 10.105469,6.65625 1.564767,4.099827 1.138586,8.228954 0.875,12.550781 C 10.674134,22.14223 10.674134,22.14223 13,24 c 2.992989,7.806275 2.674669,17.212024 -0.25,25 -1.885286,3.231918 -3.7357832,4.835947 -6.75,7 -0.66,0.99 -1.32,1.98 -2,3 -1.32,0 -2.64,0 -4,0 0,0.66 0,1.32 0,2 -6.8455059,3.422753 -17.679787,1.176442 -24.710937,-1.011719 C -28.116318,58.51804 -29.823945,57.001455 -32,54 c 0,-0.99 0,-1.98 0,-3 2.162851,1.004181 3.968638,1.974045 5.8125,3.5 C -19.964958,58.766886 -12.279117,58.774374 -5,58 2.2416802,55.903724 6.1927857,51.240522 9.8125,44.75 11.741278,38.659121 12.11151,33.445321 9.4375,27.5625 5.0902,22.992262 1.0529288,21.845707 -5.0625,21.625 -9.3644236,21.788945 -12.536137,22.246673 -16,25 c -1.330932,3.399698 -1.330932,3.399698 -1,7 2.396078,3.409804 5.10165,4.70055 9,6 -0.875,3.875 -0.875,3.875 -2,5 -2.6875,0.625 -2.6875,0.625 -6,0 -2.442329,-2.746902 -4.233784,-5.786764 -6,-9 -0.378984,-0.667734 -0.757969,-1.335469 -1.148437,-2.023438 C -24.688208,28.402599 -24.559836,24.806885 -24,21 c 1.242252,-2.709347 2.880722,-4.880722 5,-7 1.8125,-0.132812 1.8125,-0.132812 4,-0.125 0.721875,-0.0026 1.44375,-0.0052 2.1875,-0.0078 C -11,14 -11,14 -10,15 c 1.8092728,0.124878 3.6239611,0.175708 5.4375,0.1875 1.4830664,0.02127 1.4830664,0.02127 2.9960938,0.04297 C 1.1658441,15.261508 1.1658441,15.261508 3,13 3.6514505,7.6696233 3.6514505,7.6696233 1.5,3.125 1.005,2.75375 0.51,2.3825 0,2 0,1.34 0,0.68 0,0 Z"
       fill="#f7c64e"
       transform="translate(176,11)"
       id="path1177" /><path
       d="m 0,0 c 0.99,0.33 1.98,0.66 3,1 0,0.99 0,1.98 0,3 0.66,0 1.32,0 2,0 0.99,7.92 0.99,7.92 2,16 0.66,0 1.32,0 2,0 2.346463,6.572003 2.435887,13.007305 2.625,19.9375 0.03867,1.160801 0.07734,2.321602 0.117188,3.517578 C 11.835954,46.303232 11.921659,49.151387 12,52 c -1.98,0.99 -1.98,0.99 -4,2 0,0.66 0,1.32 0,2 -8.46569455,1.054029 -8.46569455,1.054029 -11.859375,-1.277344 C -7.3775743,50.723878 -12,44.507863 -12,39 c -1.98,0 -3.96,0 -6,0 -0.268125,0.70125 -0.53625,1.4025 -0.8125,2.125 -4.079412,9.876471 -4.079412,9.876471 -8.1875,11.875 -3.858534,0.421783 -7.290915,0.236362 -11,-1 -1.6875,-1.5625 -1.6875,-1.5625 -3,-3 -0.226875,0.5775 -0.45375,1.155 -0.6875,1.75 -1.777162,3.046563 -3.290005,4.37168 -6.3125,6.25 -3.24449,0.507629 -6.412354,0.423564 -9.6875,0.3125 -1.300342,-0.0145 -1.300342,-0.0145 -2.626953,-0.0293 C -66.660777,57.169611 -66.660777,57.169611 -69,56 c 0,-0.66 0,-1.32 0,-2 0.773438,0.06961 1.546875,0.139219 2.34375,0.210937 6.856385,0.356397 10.854402,-0.09543 16.132813,-4.605468 2.654392,-2.797322 3.505529,-4.265215 3.710937,-8.167969 C -46.7637,38.141069 -46.7637,38.141069 -48,36 c 4.875,1.75 4.875,1.75 6,4 0.99,-2.31 1.98,-4.62 3,-7 0.33,0 0.66,0 1,0 -0.0232,0.903633 -0.04641,1.807266 -0.07031,2.738281 -0.01805,1.179492 -0.03609,2.358985 -0.05469,3.574219 -0.0232,1.171758 -0.04641,2.343516 -0.07031,3.550781 -0.0579,3.300656 -0.0579,3.300656 2.19531,6.136719 3.372486,0.667588 3.372486,0.667588 7,0 4.593494,-3.418414 6.729382,-7.887939 9,-13 1.812421,-0.02687 3.624952,-0.04634 5.4375,-0.0625 1.009336,-0.0116 2.018672,-0.0232 3.058594,-0.03516 C -9,36 -9,36 -8,37 c 0.7796479,3.647842 1.3660801,7.323264 2,11 3.96,0 7.92,0 12,0 C 10.114932,35.655204 5.5296401,19.800251 0.84375,8.1171875 -0.25923042,5.3495237 -0.13712532,2.9481944 0,0 Z"
       fill="#f9c64e"
       transform="translate(342,21)"
       id="path1179" /><path
       d="M 0,0 C 2.8125,2.25 2.8125,2.25 5,5 5.5310937,5.5903906 6.0621875,6.1807812 6.609375,6.7890625 9.7769721,11.825186 8.5808841,18.920842 7.5195312,24.546875 5.8260997,29.67015 3.0369752,33.195199 -0.47363281,37.177979 -7.1678622,44.817357 -9.2243105,50.134197 -9.7265625,60.222656 -10.127885,65.766636 -11.613232,69.837629 -15.828125,73.65625 -19.700867,76.052335 -23.625497,75.953683 -28,75 c -5.107431,-3.504059 -7.362797,-9.219928 -9,-15 -0.172487,-1.975756 -0.344316,-3.953302 -0.415283,-5.935303 C -37.853825,43.376652 -42.370748,37.016847 -48.71582,28.730469 -53.145879,22.760838 -55.597599,17.273846 -55.371094,9.8125 -55,8 -55,8 -53,6 c -0.144375,1.19625 -0.28875,2.3925 -0.4375,3.625 0.05321,11.33402 8.882264,21.823911 15.398438,30.511719 3.552581,4.988586 3.316828,9.907961 3.46875,15.794922 C -34.360234,60.610262 -33.559063,63.943097 -31,68 c 3.472716,2.315144 4.927398,2.254538 9,2 0.99,-0.33 1.98,-0.66 3,-1 0.495,-1.485 0.495,-1.485 1,-3 0.66,0 1.32,0 2,0 0.778003,-3.112011 1.076337,-6.057951 1.140625,-9.25 0.01934,-0.773438 0.03867,-1.546875 0.05859,-2.34375 0.03385,-1.603913 0.05208,-3.208232 0.05469,-4.8125 0.138265,-4.366252 0.364858,-6.111671 3.167969,-9.65625 C -9,38 -9,38 -7,38 -6.814375,37.040937 -6.814375,37.040937 -6.625,36.0625 -6.41875,35.381875 -6.2125,34.70125 -6,34 c 0.66,-0.33 1.32,-0.66 2,-1 1.0480804,-1.975228 2.0520411,-3.974815 3,-6 0.66,0 1.32,0 2,0 C 1.185625,25.948125 1.185625,25.948125 1.375,24.875 2,22 2,22 3.0625,19.125 4.2825756,15.058081 4.9535646,10.907129 3,7 2.34,10.96 1.68,14.92 1,19 0.0242217,15.096887 -0.00903509,12.17106 0.16015625,8.21875 -0.02065279,5.7138833 -0.75040611,4.156162 -2,2 -10.591977,4.0047946 -14.229309,7.6592503 -18.875,14.9375 -19.24625,15.618125 -19.6175,16.29875 -20,17 -20.495,16.01 -20.495,16.01 -21,15 -10.743617,-1.9061256 -10.743617,-1.9061256 0,0 Z"
       fill="#f48e4a"
       transform="translate(409,6)"
       id="path1181" /><path
       d="M 0,0 C 4.0041396,3.8749739 5.146547,5.7093059 5.34375,11.357666 5.4763935,20.450999 4.4886531,27.158408 -1.9375,34.089844 -8.9043384,40.542086 -14.888144,41.56554 -24.269531,41.308594 -33.859844,40.515259 -40.53046,35.15081 -46.691406,28.050781 -49.983826,23.850677 -53.430438,19.152493 -55,14 c 0.402344,-2.234375 0.402344,-2.234375 1,-4 0.33,0.66 0.66,1.32 1,2 0.66,0 1.32,0 2,0 0.337734,0.68707 0.675469,1.374141 1.023438,2.082031 0.446015,0.901055 0.892031,1.80211 1.351562,2.730469 0.440859,0.89332 0.881719,1.786641 1.335938,2.707031 C -45.981331,22.145564 -45.981331,22.145564 -44,25 c 0.144375,0.66 0.28875,1.32 0.4375,2 0.703856,2.5026 1.580049,3.330335 3.5625,5 8.606036,3.823157 17.813539,3.31121 27,3 0,-0.66 0,-1.32 0,-2 0.556875,-0.04125 1.11375,-0.0825 1.6875,-0.125 2.5869065,-0.978829 3.2527215,-1.812779 4.9375,-3.9375 C -5.59125,27.968125 -4.8075,26.99875 -4,26 c 0.66,0 1.32,0 2,0 C 0.61695347,16.966336 1.2666247,9.3241891 0,0 Z"
       fill="#d1783f"
       transform="translate(189,37)"
       id="path1183" /><path
       d="M 0,0 C 0.33,0.66 0.66,1.32 1,2 0.2884375,3.4540625 0.2884375,3.4540625 -0.4375,4.9375 -2.6180974,9.7207459 -2.805746,14.841646 -2,20 c 1.8886156,3.167401 1.8886156,3.167401 5.125,4.625 C 3.74375,24.74875 4.3625,24.8725 5,25 c 0.33,0.66 0.66,1.32 1,2 3.7915158,0.08829 7.582762,0.140819 11.375,0.1875 1.060898,0.02514 2.121797,0.05027 3.214844,0.07617 11.523557,0.113011 11.523557,0.113011 21.381836,-5.1145 C 45.468665,17.974362 46.775162,14.396118 47,9 c 2.815662,2.693241 3.869115,4.181971 4.5,8.125 C 50.789651,22.630204 48.129375,25.434087 44,29 34.417835,34.895159 19.049856,34.543863 8.375,32.0625 2.8466986,30.07921 -0.72217135,25.724181 -4,21 -6.4646697,13.605991 -4.2123616,7.7343485 -1,1 -0.67,0.67 -0.34,0.34 0,0 Z"
       fill="#cd7a3e"
       transform="translate(19,48)"
       id="path1185" /><path
       d="m 0,0 c 2.5026896,4.6245929 3.4562997,9.4698205 4.625,14.5625 0.3441797,1.408623 0.3441797,1.408623 0.6953125,2.845703 C 7.0761664,25.022129 8.8121556,33.241455 5.3125,40.5 2.3557184,43.696521 0.37056265,45.776114 -4.109375,46.199219 -7.6380297,46.086728 -10.079561,45.764432 -12.84375,43.46875 -14.366194,41.707491 -15.710214,39.936793 -17,38 c -0.66,-0.99 -1.32,-1.98 -2,-3 0,-0.99 0,-1.98 0,-3 -1.949069,0.59533 -1.949069,0.59533 -4,2 -0.649687,1.36125 -0.649687,1.36125 -1.3125,2.75 -2.172975,4.184988 -4.572975,6.906786 -8.6875,9.25 -3.23976,0.910109 -5.770642,0.97051 -9,0 -2.796041,-1.985445 -5.025619,-4.193966 -7,-7 0,-0.66 0,-1.32 0,-2 0.99,0.33 1.98,0.66 3,1 0,0.66 0,1.32 0,2 1.749221,0.08143 3.499545,0.139385 5.25,0.1875 0.974531,0.0348 1.949062,0.06961 2.953125,0.105469 C -34.501208,39.947752 -33.328489,39.328489 -31,37 c 1.536074,-2.471399 1.536074,-2.471399 2.75,-5.1875 0.427969,-0.901055 0.855938,-1.802109 1.296875,-2.730469 C -26.638594,28.394961 -26.324062,27.707891 -26,27 c 1.98,0 3.96,0 6,0 0.705762,1.355449 0.705762,1.355449 1.425781,2.738281 0.628618,1.191559 1.25754,2.382957 1.886719,3.574219 0.463096,0.892354 0.463096,0.892354 0.935547,1.802734 C -13.485396,39.56575 -13.485396,39.56575 -10,43 c 2.5020365,0.575715 2.5020365,0.575715 5.1875,0.6875 0.9010547,0.06574 1.8021094,0.131484 2.7304687,0.199219 C -1.3949609,43.924102 -0.70789063,43.961484 0,44 0,43.34 0,42.68 0,42 0.99,41.34 1.98,40.68 3,40 3.3567753,37.494894 3.3567753,37.494894 3.1445313,34.582031 3.0987695,33.492129 3.0530078,32.402227 3.0058594,31.279297 2.9420508,30.135254 2.8782422,28.991211 2.8125,27.8125 2.7680273,26.687793 2.7235547,25.563086 2.6777344,24.404297 2.4008624,18.589986 1.777623,13.52877 0,8 -0.21794764,5.2843724 -0.0958736,2.7323976 0,0 Z"
       fill="#f28c49"
       transform="translate(350,33)"
       id="path1187" /><path
       d="m 0,0 c 3.7972712,3.2794615 4.8817835,6.6013609 5.3007812,11.558594 0.0058,1.920058 0.0058,1.920058 0.011719,3.878906 0.016758,1.277461 0.033516,2.554922 0.050781,3.871094 C 4.7755652,25.280547 2.3300324,29.094054 -1.875,33.25 -2.5324219,33.915156 -3.1898438,34.580312 -3.8671875,35.265625 -7.5199848,38.236032 -10.892152,39.276846 -15.5625,39.1875 -16.306289,39.1811 -17.050078,39.17461 -17.816406,39.16797 -19.980462,39.001503 -21.915372,38.590881 -24,38 c 0.04641,0.724453 0.09281,1.448906 0.140625,2.195312 C -23.6304,46.328559 -23.626889,50.272313 -28,55 c -3.063787,2.638261 -5.187643,3.225951 -9.125,2.9375 C -41,57 -41,57 -43,54.9375 -43.495,53.978437 -43.495,53.978437 -44,53 c 0.495,0.33 0.99,0.66 1.5,1 3.448842,1.379537 6.90523,1.957267 10.5,1 2.697844,-1.980989 4.691771,-3.515381 5.396729,-6.910889 0.09498,-2.155162 0.04086,-4.248234 -0.08423,-6.401611 -0.02256,-0.740566 -0.04512,-1.481133 -0.06836,-2.244141 C -26.814418,37.628026 -26.904091,35.813743 -27,34 c 1.024805,-0.04898 2.049609,-0.09797 3.105469,-0.148438 1.360702,-0.07507 2.721377,-0.150619 4.082031,-0.226562 0.673535,-0.03094 1.34707,-0.06188 2.041016,-0.09375 C -13.819967,33.299942 -10.526302,32.84585 -7,31 c 1.1335053,-2.016698 1.1335053,-2.016698 2,-4 0.99,-0.33 1.98,-0.66 3,-1 0.185625,-1.051875 0.185625,-1.051875 0.375,-2.125 C -1,21 -1,21 0.0625,18.1875 1.8558834,12.089996 1.0264608,6.1587646 0,0 Z"
       fill="#ba6a38"
       transform="translate(247,21)"
       id="path1189" /><path
       d="M 0,0 C 2.3915364,2.1314489 2.9544018,2.6873265 3.4375,6 3.2444583,11.280259 0.95906821,16.16355 -1,21 c -0.66,0 -1.32,0 -2,0 -0.268125,0.94875 -0.53625,1.8975 -0.8125,2.875 C -5,27 -5,27 -8,29 c -0.33,0.99 -0.66,1.98 -1,3 -2.4375,2.6875 -2.4375,2.6875 -5,5 -0.66,0 -1.32,0 -2,0 0.0232,1.241367 0.04641,2.482734 0.07031,3.761719 0.01877,1.641921 0.03697,3.283848 0.05469,4.925781 0.02514,1.224932 0.02514,1.224932 0.05078,2.474609 0.05045,6.230919 -0.407758,10.029685 -4.925781,14.650391 -3.611816,2.43103 -5.009285,2.999552 -9.25,2.1875 -4.020055,-2.466852 -5.605352,-4.56027 -7,-9 -0.268089,-2.647722 -0.460864,-5.222541 -0.5625,-7.875 C -37.789398,43.017379 -38.20178,38.053193 -39,33 c 2,1 2,1 3.089844,3.027344 1.183515,3.865473 1.331125,7.513596 1.472656,11.535156 0.235116,6.283676 0.235116,6.283676 1.4375,12.4375 1.41397,0.135959 2.831767,0.232438 4.25,0.3125 1.183359,0.08701 1.183359,0.08701 2.390625,0.175781 2.553857,-0.327805 2.553857,-0.327805 4.660156,-2.488281 1.851736,-3.269271 1.926297,-5.328629 1.746094,-9.029053 -0.42927,-8.961966 1.55213,-14.14351 7.453125,-20.908447 1.708032,-1.878042 3.4257014,-3.732085 5.2089844,-5.538818 C -5.7645453,20.913653 -5.7645453,20.913653 -5,18 c 0.66,0 1.32,0 2,0 0.8196413,-3.920987 1.4624624,-7.852252 2.0625,-11.8125 C -0.76089844,5.0260547 -0.58429688,3.8646094 -0.40234375,2.6679688 -0.26957031,1.7875391 -0.13679688,0.90710937 0,0 Z"
       fill="#fcc952"
       transform="translate(411,12)"
       id="path1191" /><path
       d="m 0,0 c 2.6621876,1.6941193 4.1625293,3.0419618 5.75,5.75 -1.32,-0.33 -2.64,-0.66 -4,-1 -0.33,0.66 -0.66,1.32 -1,2 -0.928125,-0.33 -1.85625,-0.66 -2.8125,-1 -7.5594187,-2.1423454 -15.857374,-1.6877128 -23.1875,1 -5.329883,3.418552 -8.088192,7.488363 -11,13 -0.780809,0.720868 -0.780809,0.720868 -1.577393,1.456299 -1.781543,1.93319 -1.836745,2.959772 -1.934326,5.55542 -0.03545,0.757324 -0.0709,1.514648 -0.107422,2.294922 -0.03384,1.178525 -0.03384,1.178525 -0.06836,2.380859 -0.03416,0.797285 -0.06832,1.59457 -0.103516,2.416016 -0.08237,1.965003 -0.147355,3.930721 -0.208984,5.896484 -0.66,0 -1.32,0 -2,0 0,2.64 0,5.28 0,8 -0.33,0 -0.66,0 -1,0 -0.07517,-1.173571 -0.07517,-1.173571 -0.151855,-2.37085 -0.231177,-3.522946 -0.476959,-7.044722 -0.723145,-10.56665 -0.07863,-1.231699 -0.157266,-2.463398 -0.238281,-3.732422 -0.08379,-1.169824 -0.167578,-2.339648 -0.253906,-3.544922 -0.07332,-1.084021 -0.146631,-2.168042 -0.222168,-3.284912 -0.20327,-1.237621 -0.20327,-1.237621 -0.410645,-2.500244 -0.66,-0.33 -1.32,-0.66 -2,-1 -0.407292,-2.321566 -0.744387,-4.656879 -1,-7 3.114292,2.802863 4.561715,5.093306 6,9 0.268125,-0.617461 0.53625,-1.234922 0.8125,-1.871094 4.251012,-9.18722 9.79192,-17.0785805 19.273438,-21.32031225 C -15.216739,-2.3691489 -6.8201171,-2.6064142 0,0 Z"
       fill="#e7bd46"
       transform="translate(174.25,6.25)"
       id="path1193" /><path
       d="m 0,0 c 0.66,0 1.32,0 2,0 0,0.99 0,1.98 0,3 0.99,0.33 1.98,0.66 3,1 0.086783,3.9581961 0.1403173,7.916149 0.1875,11.875 0.025137,1.12793 0.050273,2.255859 0.076172,3.417969 0.00967,1.076367 0.019336,2.152734 0.029297,3.261718 0.01571,0.994996 0.031421,1.989991 0.047607,3.015137 C 5.171991,26.772761 5.171991,26.772761 5,28 4.01,28.66 3.02,29.32 2,30 0.73142891,32.240931 0.73142891,32.240931 -0.375,34.8125 -3.574089,41.399973 -7.7421948,45.603707 -14.199219,49.054687 -21.796857,51.619023 -30.617439,50.925166 -38,48 c -2.375,-1.5 -2.375,-1.5 -4,-3 0,-0.66 0,-1.32 0,-2 2.713296,0.478817 5.188992,1.068387 7.785156,2.007812 6.12359,1.889905 12.940753,2.40686 18.917969,-0.175781 8.3463959,-5.37541 12.6138405,-12.579778 14.84277344,-22.184326 0.44046589,-2.5682 0.56854417,-4.9091 0.55175781,-7.510986 C 0.09443359,14.250488 0.09121094,13.364258 0.08789062,12.451172 0.07951172,11.53916 0.07113281,10.627148 0.0625,9.6875 0.05798828,8.7561523 0.05347656,7.8248047 0.04882812,6.8652344 0.03709234,4.5767563 0.02067363,2.2884119 0,0 Z"
       fill="#fccd52"
       transform="translate(125,24)"
       id="path1195" /><path
       d="m 0,0 c 0.33,0 0.66,0 1,0 0.33,12.87 0.66,25.74 1,39 0.99,-0.495 0.99,-0.495 2,-1 0.226875,1.19625 0.45375,2.3925 0.6875,3.625 C 5.804558,45.918454 7.4036568,49.279362 11,52 c 7.448177,3.61809 15.875584,3.660507 24,4 -1.667592,2.031042 -2.511692,2.925692 -5.15625,3.328125 C 29.070312,59.302344 28.296875,59.276562 27.5,59.25 26.726562,59.234531 25.953125,59.219062 25.15625,59.203125 23,59 23,59 20,58 c 0,0.66 0,1.32 0,2 3.353699,0.146479 6.706566,0.234455 10.0625,0.3125 1.414424,0.06284 1.414424,0.06284 2.857422,0.126953 C 39.654356,60.556778 42.926536,59.468307 48,55 46.505219,58.804897 44.305578,60.661908 41,63 32.686524,65.771159 21.872632,64.847321 14,61 7.4554833,56.74087 2.6712731,50.679852 0.45021057,43.131531 c -0.46154038,-2.185172 -0.5706217,-4.118325 -0.56373596,-6.349304 7.553e-5,-0.820549 1.5106e-4,-1.641098 2.2888e-4,-2.486512 0.005161,-0.876179 0.0103226,-1.752359 0.01564026,-2.65509 0.0014149,-0.904378 0.0028299,-1.808756 0.0042877,-2.74054 0.0055894,-2.883395 0.01814,-5.766713 0.03086853,-8.650085 0.0050164,-1.95703 0.009579,-3.914061 0.01367188,-5.871094 C -0.03781313,9.5859075 -0.02055574,4.792967 0,0 Z"
       fill="#af8c38"
       transform="translate(253,17)"
       id="path1197" /><path
       d="m 0,0 c 3.4165949,-0.05816623 6.833062,-0.09365195 10.25,-0.125 0.968086,-0.0167578 1.936172,-0.0335156 2.933594,-0.0507813 0.93457,-0.006445 1.86914,-0.0128906 2.832031,-0.0195313 0.858838,-0.0104736 1.717676,-0.0209473 2.602539,-0.0317383 3.421786,0.32618516 5.568214,1.4736968 8.069336,3.7895509 2.291818,4.2562327 2.920676,8.859771 1.804687,13.589844 C 27.758763,19.163471 26.927682,21.071397 26,23 25.505,24.093125 25.01,25.18625 24.5,26.3125 23.155185,28.72196 21.958324,30.12682 20,32 c -0.33,0.66 -0.66,1.32 -1,2 -1.070774,2.141548 -2.319689,3.319689 -4,5 -1.175747,2.099897 -1.175747,2.099897 -2,4 -0.66,0 -1.32,0 -2,0 0,0.99 0,1.98 0,3 0.99,0.33 1.98,0.66 3,1 -0.33,0.66 -0.66,1.32 -1,2 -1.98,0 -3.96,0 -6,0 C 6.2994378,44.607475 7.2070259,42.289239 9.703125,38.792969 10.871434,37.247145 12.054287,35.712226 13.25,34.1875 18.499552,27.42077 23.437417,20.902507 24.4375,12.1875 23.969063,8.7746013 23.510798,7.3314552 21,5 18.010495,4.0325922 15.14358,3.817104 12.015625,3.6835938 11.081055,3.6416992 10.146484,3.5998047 9.1835938,3.5566406 8.2155078,3.5173242 7.2474219,3.4780078 6.25,3.4375 5.2664453,3.3943164 4.2828906,3.3511328 3.2695313,3.3066406 0.84648725,3.2007795 -1.5766554,3.0986983 -4,3 -2.68,2.67 -1.36,2.34 0,2 0,1.34 0,0.68 0,0 Z"
       fill="#facd51"
       transform="translate(33,8)"
       id="path1199" /><path
       d="m 0,0 c 3.9102315,2.0844984 7.0386727,4.986138 10.125,8.1328125 -0.33,0.66 -0.66,1.32 -1,2.0000005 C 8.3457617,9.4096484 8.3457617,9.4096484 7.5507812,8.671875 6.8533984,8.0402344 6.1560156,7.4085937 5.4375,6.7578125 4.7530078,6.1313281 4.0685156,5.5048437 3.3632813,4.859375 -2.0870655,0.65509358 -7.2472002,0.82517946 -13.875,0.8828125 -14.764453,0.8750785 -15.653906,0.8673437 -16.570312,0.859375 -21.101074,0.8728997 -24.767634,0.97644512 -28.875,3.1328125 c 0,0.66 0,1.32 0,2 -0.78375,0.763125 -1.5675,1.52625 -2.375,2.3125 -4.816623,4.9313045 -4.942324,9.6991975 -4.960937,16.3554685 -0.0067,0.834855 -0.01331,1.669709 -0.02017,2.529862 -0.0101,1.764193 -0.01482,3.528425 -0.01449,5.292648 -0.0044,2.67115 -0.04064,5.340619 -0.07861,8.011475 -0.127005,11.776583 -0.127005,11.776583 3.685059,22.811767 0.252173,0.556472 0.504346,1.112945 0.76416,1.686279 -0.495,0.99 -0.495,0.99 -1,2 -0.98345,-1.434573 -1.961609,-2.872774 -2.9375,-4.3125 -0.81791,-1.200761 -0.81791,-1.200761 -1.652344,-2.425781 -2.422818,-3.885905 -2.538436,-6.954564 -2.542968,-11.441406 -0.0013,-1.240078 -0.0026,-2.480156 -0.0039,-3.757813 0.0058,-1.949062 0.0058,-1.949062 0.01172,-3.9375 -0.0039,-1.260703 -0.0077,-2.521406 -0.01172,-3.820312 C -39.98396,9.4691487 -39.98396,9.4691487 -33.382793,2.5742188 -25.407265,-4.4291846 -9.6898298,-3.46546 0,0 Z"
       fill="#b99c3b"
       transform="translate(234.875,7.8671875)"
       id="path1201" /><path
       d="M 0,0 C 4.5839488,4.3361678 8.0783272,7.7028563 8.5,14.1875 8.1025754,24.205911 0.83608567,32.382677 -5,40 c 0.6870703,0.10957 1.3741406,0.219141 2.0820312,0.332031 1.3515821,0.237832 1.3515821,0.237832 2.7304688,0.480469 0.89332031,0.15082 1.7866406,0.301641 2.7070313,0.457031 C 5.1832126,42.053954 6.2569032,42.886278 8,45 7.67,45.66 7.34,46.32 7,47 6.5204687,46.508867 6.0409375,46.017734 5.546875,45.511719 1.8214387,43.300455 -1.5060245,43.675257 -5.75,43.8125 -6.5427734,43.82603 -7.3355469,43.83957 -8.1523438,43.85352 -10.101856,43.888748 -12.051016,43.942552 -14,44 c 0,-0.99 0,-1.98 0,-3 0.99,-0.495 0.99,-0.495 2,-1 0.495,-0.99 0.99,-1.98 1.5,-3 C -9,34 -9,34 -7,33 -6.505,32.01 -6.01,31.02 -5.5,30 -4,27 -4,27 -2,26 1.2031514,19.690396 4.020228,12.789418 2.125,5.75 1.75375,4.8425 1.3825,3.935 1,3 0.67,2.01 0.34,1.02 0,0 Z"
       fill="#f7914b"
       transform="translate(58,10)"
       id="path1203" /><path
       d="M 0,0 C 1.98,0.495 1.98,0.495 4,1 4.33,3.31 4.66,5.62 5,8 5.66,8 6.32,8 7,8 7.3247344,14.434552 7.0529117,19.570866 4.734375,25.585937 3.3087618,30.272262 3.2797134,35.132986 3,40 c 4.95,0.33 9.9,0.66 15,1 0,0.66 0,1.32 0,2 -2.791172,0.248038 -5.581151,0.474143 -8.375,0.6875 C 8.4339063,43.796748 8.4339063,43.796748 7.21875,43.908203 4.9140625,44.074219 4.9140625,44.074219 1,44 -1.1157505,40.826374 -1.2292024,40.370855 -0.9765625,36.816406 -0.9249194,35.980046 -0.87327637,35.143687 -0.82006836,34.281982 -0.7556958,33.384553 -0.69132324,32.487124 -0.625,31.5625 0.01526192,21.028119 0.10199088,10.55039 0,0 Z"
       fill="#fbca52"
       transform="translate(274,14)"
       id="path1205" /><path
       d="M 0,0 C 0.9075,0.12375 1.815,0.2475 2.75,0.375 1.945625,0.99375 1.14125,1.6125 0.3125,2.25 -2.2887452,4.1166404 -2.2887452,4.1166404 -3.25,6.375 c -0.039992,1.9996001 -0.043468,4.000472 0,6 0.6496875,-1.144687 0.6496875,-1.144687 1.3125,-2.3125 C 1.4201031,4.7152062 1.4201031,4.7152062 5.4375,3.6875 6.200625,3.584375 6.96375,3.48125 7.75,3.375 c 0,-0.33 0,-0.66 0,-1 3.3,0 6.6,0 10,0 0,0.99 0,1.98 0,3 0.66,0.33 1.32,0.66 2,1 C 18.446758,6.431074 18.446758,6.431074 17.117187,6.4882812 8.3593966,6.6699204 8.3593966,6.6699204 0.75,10.375 c -1.3309316,3.399698 -1.3309316,3.399698 -1,7 2.3960785,3.409804 5.1016498,4.70055 9,6 -0.875,3.875 -0.875,3.875 -2,5 -2.6875,0.625 -2.6875,0.625 -6,0 -2.4423292,-2.746902 -4.233784,-5.786764 -6,-9 C -5.6289844,18.707266 -6.0079687,18.039531 -6.3984375,17.351562 -7.9442347,13.763611 -7.7780879,10.197036 -7.25,6.375 -4.5833333,0.52884615 -4.5833333,0.52884615 0,0 Z"
       fill="#fcd454"
       transform="translate(159.25,25.625)"
       id="path1207" /><path
       d="m 0,0 c 3.1761294,0.21940367 4.3312023,0.50684161 7,2.375 2.3924892,3.5887338 2.6250241,6.7483609 2.5625,11 C 9.55348,14.174219 9.544453,14.973437 9.535156,15.796875 9.5235547,16.400156 9.5119531,17.003437 9.5,17.625 c -0.66,0 -1.32,0 -2,0 C 7.4394141,16.986914 7.3788281,16.348828 7.3164062,15.691406 7.1907227,14.451973 7.1907227,14.451973 7.0625,13.1875 6.9812891,12.363789 6.9000781,11.540078 6.8164062,10.691406 6.7106918,8.6383798 6.7106918,8.6383798 5.5,7.625 c -2.4148241,-0.5005992 -2.4148241,-0.5005992 -5,0 -2.8837818,3.082663 -3.1746916,5.752226 -3.1875,9.8125 0.047838,1.396413 0.1054517,2.792679 0.1875,4.1875 2.31,0 4.62,0 7,0 -0.66,0.99 -1.32,1.98 -2,3 -2.875,0.4375 -2.875,0.4375 -6,0 -3.3022973,-2.476723 -5.0225351,-5.00128 -6,-9 C -9.5769236,11.009586 -8.7927033,7.3201704 -7,3.0625 -4.2599447,0.39094608 -3.6478473,0.18599222 0,0 Z"
       fill="#f9bd4d"
       transform="translate(99.5,28.375)"
       id="path1209" /><path
       d="m 0,0 c 0.33,0 0.66,0 1,0 1.0499181,22.193654 1.0499181,22.193654 -6.9375,32.5 -2.5506135,1.854992 -5.034772,2.674256 -8.0625,3.5 0,0.66 0,1.32 0,2 -8.28649,2.615685 -18.850214,1.661155 -27,-1 3.782693,-1.251346 7.301585,-0.960366 11.25,-0.8125 6.055226,0.101395 10.905299,-0.296678 15.75,-4.1875 2.316079,-2.456331 2.316079,-2.456331 4,-5 0.4885547,-0.460195 0.9771094,-0.920391 1.4804687,-1.394531 C -6.3288382,23.29088 -5.3333912,20.633465 -4.0625,17.742187 -3,16 -3,16 0,15 0,10.05 0,5.1 0,0 Z"
       fill="#dd7f43"
       transform="translate(130,37)"
       id="path1211" /><path
       d="M 0,0 C 3.6531667,1.2497676 4.7806584,1.6709875 7,5 7.8177984,7.6401763 8.3809489,10.302706 9,13 8.34,13 7.68,13 7,13 6.773125,13.5775 6.54625,14.155 6.3125,14.75 4.5353384,17.796563 3.0224949,19.12168 0,21 -3.2444904,21.507629 -6.4123543,21.423564 -9.6875,21.3125 -10.987842,21.298 -10.987842,21.298 -12.314453,21.2832 -18.660777,21.169611 -18.660777,21.169611 -21,20 c 0,-0.66 0,-1.32 0,-2 0.773438,0.06961 1.546875,0.139219 2.34375,0.210937 6.856385,0.356397 10.854402,-0.09543 16.1328125,-4.605468 C 0.13095539,10.808147 0.98209191,9.3402537 1.1875,5.4375 1.2362993,2.1410691 1.2362993,2.1410691 0,0 Z"
       fill="#f7914b"
       transform="translate(294,57)"
       id="path1213" /><path
       d="M 0,0 C 0.87333984,-0.02900391 1.7466797,-0.05800781 2.6464844,-0.08789062 11.79373,-0.17669884 18.097226,3.3104432 24.738281,9.46875 c 2.511963,2.942051 2.703964,5.01628 2.574219,8.84375 -0.519487,3.374194 -1.192554,6.683464 -2,10 -0.33,0 -0.66,0 -1,0 C 24.28672,27.599648 24.26094,26.886797 24.23437,26.152344 23.856024,19.763379 23.184159,15.474712 19.3125,10.3125 c -2.618577,-1.7896282 -2.618577,-1.7896282 -5,-3 0,-0.66 0,-1.32 0,-2 C 10.593611,4.4492399 7.1695351,4.1952844 3.3554688,4.2148437 2.2436523,4.2180664 1.1318359,4.2212891 -0.01367188,4.2246094 -1.1641602,4.2329883 -2.3146484,4.2413672 -3.5,4.25 -4.6698242,4.25451 -5.8396484,4.25902 -7.0449219,4.263672 -9.9258336,4.2754307 -12.80664,4.2918657 -15.6875,4.3125 -11.234405,-0.56469947 -6.1883243,0.06702156 0,0 Z"
       fill="#eac249"
       transform="translate(220.6875,7.6875)"
       id="path1215" /><path
       d="m 0,0 c 2.5026896,4.6245929 3.4562997,9.4698205 4.625,14.5625 0.3441797,1.408623 0.3441797,1.408623 0.6953125,2.845703 C 7.0761664,25.022129 8.8121556,33.241455 5.3125,40.5 2.3557184,43.696521 0.37056265,45.776114 -4.109375,46.199219 -7.6380297,46.086728 -10.079561,45.764432 -12.84375,43.46875 -14.366194,41.707491 -15.710214,39.936793 -17,38 c -0.66,-0.99 -1.32,-1.98 -2,-3 0,-0.99 0,-1.98 0,-3 -1.65,0.66 -3.3,1.32 -5,2 0.33,-1.32 0.66,-2.64 1,-4 1.65,0 3.3,0 5,0 0.326133,0.68707 0.652266,1.374141 0.988281,2.082031 0.436992,0.901055 0.873985,1.80211 1.324219,2.730469 0.429258,0.89332 0.858516,1.786641 1.300781,2.707031 C -13.069773,39.875195 -12.164047,41.407588 -10,43 c 2.5020365,0.575715 2.5020365,0.575715 5.1875,0.6875 0.9010547,0.06574 1.8021094,0.131484 2.7304687,0.199219 C -1.3949609,43.924102 -0.70789063,43.961484 0,44 0,43.34 0,42.68 0,42 0.99,41.34 1.98,40.68 3,40 3.3567753,37.494894 3.3567753,37.494894 3.1445313,34.582031 3.0987695,33.492129 3.0530078,32.402227 3.0058594,31.279297 2.9420508,30.135254 2.8782422,28.991211 2.8125,27.8125 2.7680273,26.687793 2.7235547,25.563086 2.6777344,24.404297 2.4008624,18.589986 1.777623,13.52877 0,8 -0.21794764,5.2843724 -0.0958736,2.7323976 0,0 Z"
       fill="#7f4926"
       transform="translate(350,33)"
       id="path1217" /><path
       d="M 0,0 C 2.7319141,1.6681599 4.8654792,3.6251689 7,6 6.67,6.66 6.34,7.32 6,8 5.195625,7.175 4.39125,6.35 3.5625,5.5 0.07081235,2.5274602 -2.7950235,2.5673693 -7.2421875,2.8242188 -7.8222656,2.8822266 -8.4023438,2.9402344 -9,3 c -2.204705,4.0538128 -2.837537,7.449138 -2,12 2.8384066,7.333392 6.9400652,13.681612 11.77734375,19.84375 C 2,37 2,37 1.576416,39.134766 1.3861987,39.750293 1.1959814,40.36582 1,41 -0.9286137,38.195527 -2.8405504,35.380048 -4.75,32.5625 -5.2888281,31.779395 -5.8276563,30.996289 -6.3828125,30.189453 -15.919815,16.058406 -15.919815,16.058406 -15,8.125 -14.9175,7.2200781 -14.835,6.3151562 -14.75,5.3828125 -12.665147,-1.2409392 -5.8407991,-1.1538485 0,0 Z"
       fill="#edc149"
       transform="translate(370,7)"
       id="path1219" /><path
       d="m 0,0 c 4.1193179,1.584353 7.3467153,3.4282706 10,7 0.25,3.25 0.25,3.25 0,6 C 9.34,13 8.68,13 8,13 7.7525,12.21625 7.505,11.4325 7.25,10.625 5.8189557,7.619807 5.0525449,7.1100163 2,6 -1.6378263,4.7873912 -4.17736,4.6045545 -8,5 c -3.248845,2.5990759 -5.427398,5.139977 -7,9 -0.66,0 -1.32,0 -2,0 0.240062,-7.0818347 0.240062,-7.0818347 2.332031,-9.609375 C -9.8350652,0.3926026 -6.1975953,-0.64750996 0,0 Z"
       fill="#f2cd50"
       transform="translate(332,6)"
       id="path1221" /><path
       d="m 0,0 c 0.76115043,2.6096586 1.0429349,4.8157629 1.1875,7.5625 1.1739791,9.374568 7.9954294,17.369052 13.472412,24.754395 4.316861,5.846286 4.588559,10.592616 4.769775,17.614746 C 19.641226,54.64277 20.56616,57.850303 23,62 c 0.53625,0.928125 1.0725,1.85625 1.625,2.8125 3.441297,3.169616 6.830649,3.080688 11.375,3.1875 0,0.33 0,0.66 0,1 -8.441207,1.05098 -8.441207,1.05098 -11.894531,-1.277344 C 19.0612,62.090953 16.853372,55.567774 16.584717,48.064697 16.146175,37.376652 11.629252,31.016847 5.2841797,22.730469 0.84500632,16.748556 -1.6208199,11.294583 -1.2734375,3.8125 -1,2 -1,2 0,0 Z"
       fill="#453616"
       transform="translate(355,12)"
       id="path1223" /><path
       d="M 0,0 C 0.61875,0.763125 1.2375,1.52625 1.875,2.3125 5.0159812,5.5351831 8.6009642,6.2493321 12.890625,7.2265625 13.586719,7.4817969 14.282813,7.7370312 15,8 c 0.33,0.99 0.66,1.98 1,3 3.353699,0.146479 6.706566,0.234455 10.0625,0.3125 0.942949,0.0419 1.885898,0.08379 2.857422,0.126953 C 35.654356,11.556778 38.926536,10.468307 44,6 42.505219,9.8048975 40.305578,11.661908 37,14 28.70759,16.764137 17.84749,15.869437 10,12 5.3923424,8.8584153 1.3644755,5.6284613 0,0 Z"
       fill="#b96d38"
       transform="translate(257,66)"
       id="path1225" /><path
       d="M 0,0 C 2.8125,2.25 2.8125,2.25 5,5 5.7985742,5.8817187 5.7985742,5.8817187 6.6132812,6.78125 9.4097917,11.255667 8.4714514,16.916786 8,22 7.2486308,24.906158 6.2843858,27.27068 5,30 4,27 4,27 5,24 5.1204754,21.668941 5.175343,19.334139 5.1875,17 5.2016797,15.7625 5.2158594,14.525 5.2304687,13.25 5.2587102,9.8524058 5.2587102,9.8524058 3,7 2.34,10.96 1.68,14.92 1,19 0.0242217,15.096887 -0.00903509,12.17106 0.16015625,8.21875 -0.02065279,5.7138833 -0.75040611,4.156162 -2,2 -10.591977,4.0047946 -14.229309,7.6592503 -18.875,14.9375 -19.431875,15.958438 -19.431875,15.958438 -20,17 -20.33,16.34 -20.66,15.68 -21,15 -10.743617,-1.9061256 -10.743617,-1.9061256 0,0 Z"
       fill="#89722b"
       transform="translate(409,6)"
       id="path1227" /><path
       d="M 0,0 C 2.1628505,1.0041806 3.9686375,1.9740449 5.8125,3.5 12.019867,7.7564806 19.736308,7.800646 27,7 31.50754,5.5169683 35.36132,3.0322332 39,0 37.125,5.75 37.125,5.75 36,8 34.68,8 33.36,8 32,8 32,8.66 32,9.32 32,10 25.154494,13.422753 14.320213,11.176442 7.2890625,8.9882813 3.8836824,7.5180403 2.176055,6.0014551 0,3 0,2.01 0,1.02 0,0 Z"
       fill="#fac44e"
       transform="translate(144,62)"
       id="path1229" /><path
       d="M 0,0 C 4.5839488,4.3361678 8.0783272,7.7028563 8.5,14.1875 8.1025754,24.205911 0.83608567,32.382677 -5,40 c 0.6870703,0.10957 1.3741406,0.219141 2.0820312,0.332031 1.3515821,0.237832 1.3515821,0.237832 2.7304688,0.480469 0.89332031,0.15082 1.7866406,0.301641 2.7070313,0.457031 C 5.1832126,42.053954 6.2569032,42.886278 8,45 7.67,45.66 7.34,46.32 7,47 6.2033594,46.27877 6.2033594,46.27877 5.390625,45.542969 2.405346,43.616196 0.27649984,43.504158 -3.25,43.3125 -4.3276563,43.246758 -5.4053125,43.181016 -6.515625,43.113281 -7.7453906,43.057207 -7.7453906,43.057207 -9,43 -6.9977608,38.560252 -4.0825384,34.729711 -1.2773437,30.777344 2.5880752,25.279009 4.2191183,22.014695 4.625,15.25 4.6997656,14.079531 4.7745312,12.909062 4.8515625,11.703125 4.9005469,10.811094 4.9495312,9.9190625 5,9 4.34,9 3.68,9 3,9 2,6 1,3 0,0 Z"
       fill="#55391a"
       transform="translate(58,10)"
       id="path1231" /><path
       d="m 0,0 c 2.2577956,4.3650715 3.1417501,7.8463955 3.3164063,12.761719 0.041894,1.118261 0.083789,2.236523 0.1269531,3.388672 0.039316,1.167246 0.078633,2.334492 0.1191406,3.537109 0.043184,1.178848 0.086367,2.357695 0.1308594,3.572266 C 3.7995118,26.173059 3.9015624,29.086438 4,32 c -1.32,0.66 -2.64,1.32 -4,2 0,0.66 0,1.32 0,2 -3.3811565,0.290366 -6.6291915,0.449089 -10,0 -2.625,-2.5 -2.625,-2.5 -4,-5 0.88752,0.05221 0.88752,0.05221 1.792969,0.105469 C -7.2807972,31.27423 -3.9962036,31.246915 0,28 1.4718061,25.056388 1.1318077,22.399518 1.125,19.125 1.12758,17.890078 1.13016,16.655156 1.13281,15.382813 1.0255522,12.650831 0.70695226,10.594014 0,8 -0.12205329,5.3245918 -0.04467313,2.6803876 0,0 Z"
       fill="#ef8e49"
       transform="translate(350,41)"
       id="path1233" /><path
       d="M 0,0 C 2.8156615,2.6932415 3.8691153,4.1819707 4.5,8.125 3.789651,13.630204 1.1293755,16.434087 -3,20 -12.295002,25.718489 -25.860306,25.150472 -36.296875,23.46875 -41.01113,22.18558 -43.253585,21.166975 -46,17 c 0.835313,0.433125 0.835313,0.433125 1.6875,0.875 0.763125,0.37125 1.52625,0.7425 2.3125,1.125 0.650977,0.346758 1.301953,0.693516 1.972656,1.050781 4.569341,1.43271 9.017287,1.277586 13.777344,1.261719 0.951328,0.01611 1.902656,0.03223 2.882813,0.04883 C -14.451908,21.367434 -7.1310093,19.565666 0,14 2.3322949,11.196367 2.3322949,11.196367 1.6875,8.125 1.3471875,6.578125 1.3471875,6.578125 1,5 0.814375,4.05125 0.62875,3.1025 0.4375,2.125 0.293125,1.42375 0.14875,0.7225 0,0 Z"
       fill="#563119"
       transform="translate(66,57)"
       id="path1235" /><path
       d="m 0,0 c 2.2477975,2.0523369 3.0022242,3.0066726 4,6 0.1250559,2.783222 0.1898065,5.529104 0.1875,8.3125 6.445e-4,0.795835 0.00129,1.59167 0.00195,2.411621 C 4.1259559,23.946928 3.2809056,30.886399 2,38 c 1.0596094,-0.0348 2.1192187,-0.06961 3.2109375,-0.105469 1.388005,-0.02813 2.7760271,-0.05544 4.1640625,-0.08203 0.698672,-0.02514 1.397344,-0.05027 2.117188,-0.07617 2.03125,-0.0293 2.03125,-0.0293 5.507812,0.263672 0.66,0.99 1.32,1.98 2,3 C 18.263301,40.7525 18.263301,40.7525 17.511719,40.5 13.950225,39.791025 10.42555,39.935768 6.8125,40 4.2020114,40.045678 1.6118621,40.04722 -1,40 -1.33,39.67 -1.66,39.34 -2,39 -1.9570752,32.389589 -1.0215818,26.475259 1.3007812,20.3125 2.6080448,15.989036 2.756596,11.490384 3,7 2.34,7 1.68,7 1,7 0.67,4.69 0.34,2.38 0,0 Z"
       fill="#8c542b"
       transform="translate(278,15)"
       id="path1237" /><path
       d="m 0,0 c -1.4250217,3.9045594 -3.2665213,7.2483596 -5.5,10.75 -0.6084375,0.964219 -1.216875,1.928437 -1.84375,2.921875 C -9,16 -9,16 -11,17 -10.452763,13.625373 -9.9451,11.91765 -8,9 -8.7425,8.87625 -9.485,8.7525 -10.25,8.625 -14.490316,7.6612919 -17.698388,5.829953 -21,3 c 0,-0.66 0,-1.32 0,-2 0.99,0.33 1.98,0.66 3,1 6.49372,0.3142123 11.7365222,-2.35791302 18,-2 z"
       fill="#f5c84d"
       transform="translate(36,28)"
       id="path1239" /><path
       d="M 0,0 C 0.99,0.33 1.98,0.66 3,1 3,1.99 3,2.98 3,4 3.66,4 4.32,4 5,4 5.1643555,5.1466211 5.1643555,5.1466211 5.3320312,6.3164062 6.2347634,12.415353 7.2933756,18.416791 8.625,24.4375 10.140405,31.747996 10.309993,38.548677 10,46 9.01,46.495 9.01,46.495 8,47 7.9858203,46.077031 7.9716406,45.154063 7.9570312,44.203125 7.5080826,31.923772 5.4425383,19.588841 0.84765625,8.125 -0.25796018,5.3533164 -0.13734707,2.952962 0,0 Z"
       fill="#fdd555"
       transform="translate(342,21)"
       id="path1241" /><path
       d="m 0,0 c 3.8206395,1.7976165 5.9500398,2.8234446 7.765625,6.734375 0.2500781,0.7669922 0.5001563,1.5339844 0.7578125,2.3242188 -0.66,0.66 -1.32,1.3200002 -2,2.0000002 -0.4125,-0.763125 -0.825,-1.5262502 -1.25,-2.3125002 C -1.2756182,2.3458802 -11.95667,2.6834905 -20.640625,2.3671875 -23.476562,2.0585938 -23.476562,2.0585938 -25.476562,0.05859375 -18.893292,-3.2330416 -6.8979477,-1.8678712 0,0 Z"
       fill="#e8be46"
       transform="translate(114.47656,8.9414063)"
       id="path1243" /><path
       d="m 0,0 c 3.9102315,2.0844984 7.0386727,4.986138 10.125,8.1328125 -0.33,0.66 -0.66,1.32 -1,2.0000005 C 8.3457617,9.4096484 8.3457617,9.4096484 7.5507812,8.671875 6.8533984,8.0402344 6.1560156,7.4085937 5.4375,6.7578125 4.7530078,6.1313281 4.0685156,5.5048437 3.3632813,4.859375 -2.0870655,0.65509358 -7.2472002,0.82517946 -13.875,0.8828125 -14.764453,0.8750785 -15.653906,0.8673437 -16.570312,0.859375 -21.101074,0.8728997 -24.767634,0.97644512 -28.875,3.1328125 c 0,0.66 0,1.32 0,2 -3.96,1.98 -3.96,1.98 -8,4 1.438208,-5.0337284 3.902455,-6.9895589 8,-10 C -20.621545,-3.6183393 -8.1767575,-2.9243265 0,0 Z"
       fill="#53481c"
       transform="translate(234.875,7.8671875)"
       id="path1245" /><path
       d="M 0,0 C 3.3746271,0.54723683 5.08235,1.0549 8,3 13.253808,4.2695371 18.506451,4.1150536 23.875,4.0625 24.754141,4.05799 25.633281,4.05348 26.539062,4.048828 28.692738,4.0371234 30.846378,4.0191907 33,4 33,3.34 33,2.68 33,2 34.65,1.34 36.3,0.68 38,0 35.068565,4.3385241 32.09098,6.7838213 27,8 17.161128,9.1015915 7.8312905,7.1825978 0,1 0,0.67 0,0.34 0,0 Z"
       fill="#66391e"
       transform="translate(83,71)"
       id="path1247" /><path
       d="M 0,0 C 2,2 2,2 2.375,5.3125 1.9445298,9.5454568 0.96639625,11.033604 -2,14 c -3.2129206,1.60646 -6.5258652,1.624414 -10,1 -3,-2.5 -3,-2.5 -5,-5 0.66,-0.33 1.32,-0.66 2,-1 0,0.66 0,1.32 0,2 3.3,0 6.6,0 10,0 C -3.7081488,8.4162976 -2.4960976,5.899867 -1.375,3.25 -0.92125,2.1775 -0.4675,1.105 0,0 Z"
       fill="#f18e49"
       transform="translate(219,62)"
       id="path1249" /><path
       d="m 0,0 c 6.9485015,6.7656462 6.9485015,6.7656462 7.125,10.996094 -0.083239,2.29167 -0.166572,4.583337 -0.25,6.875 C 6.9964518,20.911184 7.4036184,22.462003 9,25 7.8278046,24.216543 6.6623633,23.422972 5.5,22.625 4.8503125,22.184141 4.200625,21.743281 3.53125,21.289062 3.0259375,20.863672 2.520625,20.438281 2,20 2,19.34 2,18.68 2,18 1.34,18 0.68,18 0,18 0.50603992,15.831257 0.99983813,14.000324 2,12 2.4150717,5.6835413 2.4150717,5.6835413 0,0 Z"
       fill="#ab6b35"
       transform="translate(180,12)"
       id="path1251" /><path
       d="M 0,0 C 0.33,0 0.66,0 1,0 1.9155738,3.8911889 2.3359915,6.2104199 0.75,9.9375 -2.9902829,12.742712 -5.8698822,12.560203 -10.441406,12.566406 -13,12 -13,12 -14.839844,9.9648438 -15.222695,9.3164453 -15.605547,8.6680469 -16,8 c 2.978516,0.048828 2.978516,0.048828 5.957031,0.097656 C -7.7969454,8.0826322 -7.7969454,8.0826322 -5,7 c 0.33,-0.99 0.66,-1.98 1,-3 0.66,0 1.32,0 2,0 0.66,-1.32 1.32,-2.64 2,-4 z"
       fill="#d2783f"
       transform="translate(395,68)"
       id="path1253" /><path
       d="m 0,0 c 0.66,0 1.32,0 2,0 -1.4247452,4.5008996 -3.7212884,6.9141016 -7,10.25 -5.646692,6.17134 -6.342229,12.023535 -6.71875,20.160156 C -12,34 -12,34 -14,37 -15.696022,18.984479 -15.696022,18.984479 -10.618652,12.665039 -8.4895697,10.366572 -6.2302494,8.1998369 -4,6 -2.9094531,4.3545117 -2.9094531,4.3545117 -1.796875,2.6757813 -1.2039062,1.7927734 -0.6109375,0.90976562 0,0 Z"
       fill="#5d351c"
       transform="translate(411,36)"
       id="path1255" /><path
       d="M 0,0 C 3.3982149,5.4974982 1.8865473,12.132699 0.50390625,18.164062 -1.2923037,23.229151 -4.6286217,25.278198 -9,28 -8.7228516,27.456016 -8.4457031,26.912031 -8.1601563,26.351562 -4.5353935,19.0044 -1.5153131,12.23084 -1.140625,3.9609375 -1,2 -1,2 0,0 Z"
       fill="#fdd255"
       transform="translate(189,40)"
       id="path1257" /><path
       d="M 0,0 C 0.33,0 0.66,0 1,0 0.67,4.62 0.34,9.24 0,14 c 5.61,0.33 11.22,0.66 17,1 0,0.66 0,1.32 0,2 -2.791172,0.248038 -5.581151,0.474143 -8.375,0.6875 C 7.8309375,17.76033 7.036875,17.833164 6.21875,17.908203 3.9140625,18.074219 3.9140625,18.074219 0,18 -2.7045484,13.943177 -2.4207659,10.757891 -2,6 -1,2.4375 -1,2.4375 0,0 Z"
       fill="#f8d151"
       transform="translate(275,40)"
       id="path1259" /><path
       d="M 0,0 C 3.872154,1.4582367 4.9377728,3.2310428 6.625,6.9375 7.961032,9.8265628 9.2269032,12.340355 11,15 c 0.143086,0.644531 0.286172,1.289062 0.433594,1.953125 0.702907,2.540162 1.870599,3.851514 3.628906,5.796875 0.547852,0.613594 1.095703,1.227187 1.660156,1.859375 C 17.14418,25.068281 17.565703,25.527187 18,26 9.8114903,22.583479 4.4948974,13.91201 0.77734375,6.2265625 0,4 0,4 0,0 Z"
       fill="#93732e"
       transform="translate(134,47)"
       id="path1261" /><path
       d="m 0,0 c 3.4582634,-0.05789006 6.9164029,-0.09355821 10.375,-0.125 0.984844,-0.0167578 1.969687,-0.0335156 2.984375,-0.0507813 1.411523,-0.009668 1.411523,-0.009668 2.851562,-0.0195313 1.303968,-0.0157104 1.303968,-0.0157104 2.634278,-0.0317383 C 21,0 21,0 23,2 22.34,2 21.68,2 21,2 21,2.66 21,3.32 21,4 12.75,3.67 4.5,3.34 -4,3 -2.68,2.67 -1.36,2.34 0,2 0,1.34 0,0.68 0,0 Z"
       fill="#e9bb44"
       transform="translate(33,8)"
       id="path1263" /><path
       d="M 0,0 C 0.99,0 1.98,0 3,0 2.979375,1.19625 2.95875,2.3925 2.9375,3.625 2.9311743,7.1800487 3.3011113,10.505556 4,14 c 2.97,0.33 5.94,0.66 9,1 -0.99,1.485 -0.99,1.485 -2,3 C 8.125,18.4375 8.125,18.4375 5,18 1.6977027,15.523277 -0.02253505,12.99872 -1,9 -0.86204772,5.9650498 -0.48332105,2.9978968 0,0 Z"
       fill="#f9cd4e"
       transform="translate(91,35)"
       id="path1265" /><path
       d="M 0,0 C 0.99,0.33 1.98,0.66 3,1 3,1.99 3,2.98 3,4 3.66,4 4.32,4 5,4 5.33,5.65 5.66,7.3 6,9 6.6496875,8.3503125 6.6496875,8.3503125 7.3125,7.6875 8.875,6.125 10.4375,4.5625 12,3 13.125,6.75 13.125,6.75 12,9 11.34,9 10.68,9 10,9 9.34,10.32 8.68,11.64 8,13 6.140625,12.773438 6.140625,12.773438 4,12 2.734375,10.039063 2.734375,10.039063 1.75,7.625 1.4148437,6.8335156 1.0796875,6.0420312 0.734375,5.2265625 0,3 0,3 0,0 Z"
       fill="#e1b146"
       transform="translate(377,21)"
       id="path1267" /><path
       d="M 0,0 C 2,1 2,1 3.0898438,3.0273438 4.2733591,6.8928166 4.4209687,10.54094 4.5625,14.5625 4.7976157,20.846176 4.7976157,20.846176 6,27 c 2.31,0.33 4.62,0.66 7,1 0,0.33 0,0.66 0,1 -2.31,0.33 -4.62,0.66 -7,1 C 2.2150813,25.227711 1.7927088,21.190904 1.5,15.25 1.2409451,10.107281 0.79935582,5.089232 0,0 Z"
       fill="#f7cc4c"
       transform="translate(372,45)"
       id="path1269" /><path
       d="m 0,0 c 4.7605419,3.6114456 5.8439934,8.3872837 7,14 0.4888575,3.99547 0.7997056,7.980299 1,12 -0.66,0 -1.32,0 -2,0 0,2.64 0,5.28 0,8 C 5.67,34 5.34,34 5,34 4.9248315,32.826429 4.9248315,32.826429 4.8481445,31.62915 4.6169684,28.106204 4.3711859,24.584428 4.125,21.0625 4.0463672,19.830801 3.9677344,18.599102 3.8867188,17.330078 3.8029297,16.160254 3.7191406,14.99043 3.6328125,13.785156 3.5228394,12.159125 3.5228394,12.159125 3.4106445,10.500244 3.2073755,9.2626233 3.2073755,9.2626233 3,8 2.34,7.67 1.68,7.34 1,7 0.59270772,4.678434 0.25561323,2.3431213 0,0 Z"
       fill="#764523"
       transform="translate(126,20)"
       id="path1271" /><path
       d="M 0,0 C 0.66,0.33 1.32,0.66 2,1 1.21625,1.70125 0.4325,2.4025 -0.375,3.125 -3.1312448,6.1437443 -3.92744,8.1222831 -5,12 c -1.5751634,3.675381 -1.5751634,3.675381 -3.5234375,5.164062 -2.2647705,2.815985 -2.0011945,5.472926 -2.1640625,9.023438 -0.06574,1.272305 -0.131484,2.544609 -0.199219,3.855469 -0.03738,0.97582 -0.07477,1.95164 -0.113281,2.957031 -0.33,0 -0.66,0 -1,0 C -12.574074,20.896616 -11.91054,13.270037 -3.75,3.9375 -2.5108833,2.6147203 -1.2646375,1.2984021 0,0 Z"
       fill="#8d782f"
       transform="translate(145,10)"
       id="path1273" /><path
       d="M 0,0 C 1.65,0 3.3,0 5,0 5.3261328,0.68707031 5.6522656,1.3741406 5.9882812,2.0820313 6.4252734,2.9830859 6.8622656,3.8841406 7.3125,4.8125 7.7417578,5.7058203 8.1710156,6.5991406 8.6132813,7.5195312 9.930227,9.8751948 10.835953,11.407588 13,13 c 2.502036,0.575715 2.502036,0.575715 5.1875,0.6875 0.901055,0.06574 1.802109,0.131484 2.730469,0.199219 0.68707,0.03738 1.37414,0.07477 2.082031,0.113281 0,-0.66 0,-1.32 0,-2 2.5,-1.625 2.5,-1.625 5,-3 -0.980533,2.585041 -1.971373,3.974843 -4.0625,5.8125 C 19.729893,16.513448 16.293112,16.511659 12,15 9.5359706,12.953603 7.7687755,10.656063 6,8 5.34,7.01 4.68,6.02 4,5 4,4.01 4,3.02 4,2 2.35,2.66 0.7,3.32 -1,4 -0.67,2.68 -0.34,1.36 0,0 Z"
       fill="#472c15"
       transform="translate(327,63)"
       id="path1275" /><path
       d="m 0,0 c 0.6875,1.75 0.6875,1.75 1,4 -1.375,2 -1.375,2 -3,4 -0.9206593,2.884732 -1.1894008,5.605137 -1.25,8.625 -0.025781,0.776016 -0.051563,1.552031 -0.078125,2.351562 C -3.2198438,19.644297 -3.1115625,20.312031 -3,21 c 0.99,0.66 1.98,1.32 3,2 0,0.66 0,1.32 0,2 0.99,0.33 1.98,0.66 3,1 -1.65,0.33 -3.3,0.66 -5,1 C -4.4697844,24.761758 -5.8400232,22.88058 -6.4414062,19.570312 -6.759704,12.321338 -4.8280604,7.0997947 -1,1 -0.67,0.67 -0.34,0.34 0,0 Z"
       fill="#e3bc46"
       transform="translate(22,46)"
       id="path1277" /><path
       d="M 0,0 C 0.33,0 0.66,0 1,0 1.33,2.31 1.66,4.62 2,7 2.33,7 2.66,7 3,7 2.9767969,8.2297656 2.9535938,9.4595313 2.9296875,10.726563 2.9109196,12.359369 2.8927205,13.992182 2.875,15.625 2.8582422,16.433242 2.8414844,17.241484 2.8242188,18.074219 2.7857901,22.800938 3.1726291,26.553877 5,31 0.43253022,26.880321 -0.8125641,21.752348 -1.2226562,15.730469 -1.2656718,10.353519 -0.98410519,5.2935336 0,0 Z"
       fill="#7a6526"
       transform="translate(69,30)"
       id="path1279" /><path
       d="M 0,0 C 0,0.99 0,1.98 0,3 -6.4183336,8.9904447 -10.83828,9.2939235 -19.34375,9.2148438 -25.637378,8.8450259 -31.494362,7.8528467 -36.125,3.3125 -36.74375,2.549375 -37.3625,1.78625 -38,1 c 3.089649,0.9340798 5.753671,1.8460443 8.5,3.5625 5.980192,3.4386103 14.640636,3.4023409 21.25,1.75 C -5.1757476,4.5191861 -2.6674083,2.3572445 0,0 Z"
       fill="#472815"
       transform="translate(300,72)"
       id="path1281" /><path
       d="m 0,0 c 2.475,0.99 2.475,0.99 5,2 0.2950682,5.0161595 0.1376336,7.9968123 -3,12 -2.4375,2.375 -2.4375,2.375 -5,4 -2.3125,-0.25 -2.3125,-0.25 -4,-1 2.0349523,-2.034952 4.0062355,-4.005023 6.25,-5.8125 C 1.7220182,8.0974773 1.356194,5.8468955 1,2 0.67,1.34 0.34,0.68 0,0 Z"
       fill="#fbcd52"
       transform="translate(294,57)"
       id="path1283" /><path
       d="M 0,0 C 2.3125,0.4375 2.3125,0.4375 3.3125,1.4375 3.5507813,3.8359375 3.5507813,3.8359375 3.625,6.8125 3.6623828,7.7896094 3.6997656,8.7667188 3.7382813,9.7734375 3.3125,12.4375 3.3125,12.4375 1.4648437,14.277344 c -2.5651098,1.382645 -4.27952,1.399558 -7.1523437,1.160156 -1.5547669,-3.109534 -1.2864444,-5.5626676 -1,-9 C -3.8336397,0.62408088 -3.8336397,0.62408088 0,0 Z m -0.6875,2.4375 c -2.1457916,1.5590118 -2.1457916,1.5590118 -4,4 -0.3341793,3.667521 -0.3341793,3.667521 0,7 0.99,0.495 0.99,0.495 2,1 3.16314026,-1.243748 3.16314026,-1.243748 5,-4 0.040224,-2.3329866 0.043203,-4.6670667 0,-7 -0.99,-0.33 -1.98,-0.66 -3,-1 z"
       fill="#3e2913"
       transform="translate(102.6875,34.5625)"
       id="path1285" /><path
       d="m 0,0 c 0.66,0.66 1.32,1.32 2,2 -0.7869783,2.7514203 -1.57937739,5.5010792 -2.375,8.25 -0.33257812,1.165957 -0.33257812,1.165957 -0.671875,2.355469 -0.2191406,0.754101 -0.4382812,1.508203 -0.6640625,2.285156 -0.198999,0.69126 -0.3979981,1.38252 -0.6030273,2.094727 C -3.0357044,19.104851 -3.9564746,21.021569 -5,23 -5.66,23 -6.32,23 -7,23 -6.4021821,17.769094 -5.2183311,13.093432 -3.5,8.125 -3.2744141,7.4495312 -3.0488281,6.7740625 -2.8164063,6.078125 -1.1409337,1.1409337 -1.1409337,1.1409337 0,0 Z"
       fill="#e8c24a"
       transform="translate(314,21)"
       id="path1287" /><path
       d="M 0,0 C 4.2222104,1.6239271 6.989539,3.6421781 10,7 9.67,7.66 9.34,8.32 9,9 8.443125,8.175 7.88625,7.35 7.3125,6.5 4.3712641,3.5163832 1.5724872,3.5737936 -2.5,3.5 -7.3021427,3.5448798 -10.047347,4.2721125 -14,7 c -0.99,0.495 -0.99,0.495 -2,1 2.563328,-7.1773184 9.0798128,-9.1487511 16,-8 z"
       fill="#645622"
       transform="translate(332,6)"
       id="path1289" /><path
       d="m 0,0 c 4.608538,0.72008406 8.6723741,2.3129594 13,4 0,0.66 0,1.32 0,2 3.96,0 7.92,0 12,0 0,0.33 0,0.66 0,1 C 22.624686,7.054397 20.250641,7.093859 17.875,7.125 17.209844,7.141758 16.544687,7.158516 15.859375,7.175781 9.7577664,7.2356009 4.575325,6.223377 0,2 0,1.34 0,0.68 0,0 Z"
       fill="#fcb450"
       transform="translate(83,67)"
       id="path1291" /><path
       d="M 0,0 C 3.8634179,3.8634179 4.8712157,6.2235343 5.265625,11.664063 5.2604687,12.971172 5.2553125,14.278281 5.25,15.625 5.25516,16.937266 5.260313,18.249531 5.265625,19.601562 5,23 5,23 3,26 2.01,17.42 1.02,8.84 0,0 Z"
       fill="#a55f31"
       transform="translate(247,21)"
       id="path1293" /><path
       d="M 0,0 C 1.65,0.33 3.3,0.66 5,1 5.9313178,4.0479493 6.2975776,5.4205067 4.8125,8.3125 3,10 3,10 -1,10 -0.67,6.7 -0.34,3.4 0,0 Z"
       fill="#fbce51"
       transform="translate(219,27)"
       id="path1295" /><path
       d="M 0,0 C 2.875,2.5 2.875,2.5 5,5 3.0625,5.5625 3.0625,5.5625 1,6 0.67,5.67 0.34,5.34 0,5 -1.4566769,4.9274563 -2.9166725,4.9162622 -4.375,4.9375 -5.1664844,4.9465234 -5.9579687,4.9555469 -6.7734375,4.9648437 -7.8755859,4.9822461 -7.8755859,4.9822461 -9,5 -9.99,5 -10.98,5 -12,5 -8.7720264,0.23489616 -5.7227677,-0.68673213 0,0 Z"
       fill="#e5c049"
       transform="translate(270,7)"
       id="path1297" /><path
       d="M 0,0 C 2.625,1.625 2.625,1.625 3.625,3.625 2.8244922,3.3001563 2.0239844,2.9753125 1.1992187,2.640625 -3.1630209,1.4010815 -7.0564317,1.3311453 -11.5625,1.375 c -0.806309,-0.00773 -1.612617,-0.015469 -2.443359,-0.023437 -1.163057,0.00387 -1.163057,0.00387 -2.34961,0.00781 -0.700202,0.00226 -1.400405,0.00451 -2.121826,0.00684 -2.227519,0.1629187 -2.227519,0.1629187 -4.897705,2.2587891 -2.1875,-0.375 -2.1875,-0.375 -4,-1 C -19.456353,-2.5463614 -8.9091267,-3.5968524 0,0 Z"
       fill="#50461b"
       transform="translate(174.375,6.375)"
       id="path1299" /><path
       d="M 0,0 C 0.33,0.99 0.66,1.98 1,3 -0.36328125,5.0078125 -0.36328125,5.0078125 -2.3125,7.125 -2.9480078,7.8288281 -3.5835156,8.5326563 -4.2382812,9.2578125 -7.4043734,12.388804 -10.29766,12.506116 -14.601563,12.492188 -18.897919,11.610525 -21.542149,8.4931519 -24,5 c 0,-0.66 0,-1.32 0,-2 3,1 3,1 4.625,3.5625 2.653195,2.7230161 3.190197,2.8558287 6.8125,3 C -8.2400623,9.3069864 -5.9880158,8.2516642 -3,5 -1.2103718,2.3814231 -1.2103718,2.3814231 0,0 Z"
       fill="#58331a"
       transform="translate(325,67)"
       id="path1301" /><path
       d="M 0,0 C 2,2 2,2 2.25,5.75 2.1046656,10.764036 1.2917814,14.556244 -2.125,18.375 -2.74375,18.91125 -3.3625,19.4475 -4,20 -4.225913,16.046522 -3.4548817,13.637204 -2,10 -1.2446945,6.6827801 -0.61082796,3.3465575 0,0 Z"
       fill="#fed556"
       transform="translate(247,26)"
       id="path1303" /><path
       d="m 0,0 c 3.4694155,0.45822468 6.6739505,0.89131683 10,2 1.892127,0.2217979 3.788845,0.4061402 5.6875,0.5625 0.993867,0.083789 1.987734,0.1675781 3.011719,0.2539063 C 19.838105,2.9072852 19.838105,2.9072852 21,3 c 0,0.33 0,0.66 0,1 -2.64,0.33 -5.28,0.66 -8,1 5.445,0.495 5.445,0.495 11,1 0,0.33 0,0.66 0,1 C 15.262577,7.686185 8.5440274,6.6707862 1,2 0.67,1.34 0.34,0.68 0,0 Z"
       fill="#d98142"
       transform="translate(150,70)"
       id="path1305" /><path
       d="M 0,0 C 4.0199015,-0.49223283 7.529023,-0.81543289 11.15625,1.1953125 13.02819,2.7220179 14.595572,4.0310915 16,6 c 0,1.32 0,2.64 0,4 -2,0 -2,0 -4.4375,-2.375 C 10.716875,6.75875 9.87125,5.8925 9,5 5.5554926,2.7036618 3.0618772,2.4598352 -1,2 -0.67,1.34 -0.34,0.68 0,0 Z"
       fill="#f0ca4e"
       transform="translate(361,9)"
       id="path1307" /><path
       d="M 0,0 C 7.7963701,7.3749447 7.7963701,7.3749447 8.1796875,12.316406 8.1866882,14.553121 8.131325,16.767475 8,19 7.01,19.33 6.02,19.66 5,20 5,16.37 5,12.74 5,9 4.34,9 3.68,9 3,9 2,6 1,3 0,0 Z"
       fill="#7e4f26"
       transform="translate(58,10)"
       id="path1309" /><path
       d="m 0,0 c 0.84191782,2.9248633 1.1181931,5.5074166 1.0976562,8.546875 -0.00322,0.8443359 -0.00645,1.688672 -0.00977,2.558594 -0.00838,0.872695 -0.016758,1.74539 -0.025391,2.644531 -0.00451,0.888164 -0.00902,1.776328 -0.013672,2.691406 C 1.037074,18.627673 1.0206425,20.813802 1,23 0.34,23.33 -0.32,23.66 -1,24 -2.3463205,19.961038 -2.1841755,16.228785 -2.1875,12 -2.1997461,11.180156 -2.2119922,10.360312 -2.2246094,9.515625 -2.226543,8.7267188 -2.2284766,7.9378125 -2.2304688,7.125 -2.2345776,6.4057031 -2.2386865,5.6864062 -2.2429199,4.9453125 -2,3 -2,3 0,0 Z"
       fill="#eabc43"
       transform="translate(136,26)"
       id="path1311" /><path
       d="M 0,0 C 4.455,1.98 4.455,1.98 9,4 8,8 8,8 7,9 5.0004164,9.0408078 2.9995475,9.0425436 1,9 0.67,8.34 0.34,7.68 0,7 0.99,6.67 1.98,6.34 3,6 2.01,5.34 1.02,4.68 0,4 0,2.68 0,1.36 0,0 Z"
       fill="#fac74e"
       transform="translate(159,45)"
       id="path1313" /><path
       d="M 0,0 C 0.886875,0.639375 1.77375,1.27875 2.6875,1.9375 5.7842057,3.8656375 7.5300562,4.3607998 11,5 13.3125,6.5625 13.3125,6.5625 15,8 14.67,8.99 14.34,9.98 14,11 7.4396055,9.370621 3.7710489,7.7173967 0,2 0,1.34 0,0.68 0,0 Z"
       fill="#7f4b26"
       transform="translate(13,29)"
       id="path1315" /><path
       d="m 0,0 c 2.3125,0.8125 2.3125,0.8125 3.3125,2.8125 -1.423125,0.37125 -1.423125,0.37125 -2.875,0.75 -3.0920596,0.9535365 -3.0920596,0.9535365 -4.5,2.875 -0.9240148,3.5112561 -0.7458806,6.748582 -0.625,10.375 -0.66,0 -1.32,0 -2,0 C -6.8837739,15.23023 -7.0691554,13.646607 -7.25,12.0625 -7.3544141,11.180781 -7.4588281,10.299063 -7.5664062,9.390625 -7.6837602,6.8921219 -7.5236375,5.156763 -6.6875,2.8125 -4.3545533,0.39623383 -3.390821,-0.23656891 0,0 Z"
       fill="#f28d49"
       transform="translate(101.6875,32.1875)"
       id="path1317" /><path
       d="M 0,0 C 0,0.66 0,1.32 0,2 -1.1446875,2.4021875 -1.1446875,2.4021875 -2.3125,2.8125 -6.4902979,4.6585037 -8.1547876,6.8837569 -10,11 c -0.33,0 -0.66,0 -1,0 -0.199669,-3.4609313 -0.32761,-6.2014503 1,-9.4375 C -6.8103901,-0.92938272 -3.9654309,-0.26002825 0,0 Z"
       fill="#fe9d4e"
       transform="translate(166,28)"
       id="path1319" /><path
       d="M 0,0 C 0,0.66 0,1.32 0,2 -6.6308725,4.9328859 -6.6308725,4.9328859 -9.0625,5.375 -12.30203,6.4200095 -14.473127,8.760272 -17,11 -13.374481,3.0449783 -8.8439782,-1.0861026 0,0 Z"
       fill="#a98e36"
       transform="translate(91,10)"
       id="path1321" /><path
       d="M 0,0 C 2.7457197,2.2400723 3.8992726,3.4003943 4.4960937,6.953125 4.3768446,13.662879 3.8691155,18.903129 1,25 0,22 0,22 1,19 1.095653,16.709951 1.1298458,14.41704 1.125,12.125 1.12758,10.910703 1.13016,9.6964063 1.13281,8.4453125 1.018843,5.4888091 0.68703101,2.8680818 0,0 Z"
       fill="#704121"
       transform="translate(413,11)"
       id="path1323" /><path
       d="M 0,0 C 0,0.66 0,1.32 0,2 -1.051875,2.20625 -2.10375,2.4125 -3.1875,2.625 -7.5324615,3.853878 -9.3783158,6.3587719 -12,10 c -0.598125,0.78375 -1.19625,1.5675 -1.8125,2.375 -0.391875,0.53625 -0.78375,1.0725 -1.1875,1.625 -0.734375,-1.707031 -0.734375,-1.707031 -1,-4 1.546875,-2.3242188 1.546875,-2.3242188 3.75,-4.6875 0.716719,-0.7876172 1.433437,-1.5752344 2.171875,-2.3867187 C -6.8641219,-0.05260885 -4.2079255,-0.11372772 0,0 Z"
       fill="#f6cf50"
       transform="translate(407,8)"
       id="path1325" /><path
       d="M 0,0 C 2.6102576,0.44747273 4.8832586,0.94833403 7.3125,2.0234375 14.548966,4.6529674 22.818647,3.2096471 30,1 27.12371,4.150222 25.06451,4.9221401 20.742187,5.2382812 13.017291,5.3865368 6.7824055,5.1172326 0,1 0,0.67 0,0.34 0,0 Z"
       fill="#452714"
       transform="translate(152,73)"
       id="path1327" /><path
       d="m 0,0 c 0.625,1.8125 0.625,1.8125 1,4 -0.99,1.485 -0.99,1.485 -2,3 0,0.99 0,1.98 0,3 -1.8984375,1.789063 -1.8984375,1.789063 -4.375,3.625 -0.8121094,0.611016 -1.6242187,1.222031 -2.4609375,1.851563 C -10,17 -10,17 -12,18 -9.9140909,13.178472 -6.3622684,9.5279869 -2.9960938,5.5585937 -0.84684308,3.0975518 -0.84684308,3.0975518 0,0 Z"
       fill="#f8c44b"
       transform="translate(406,30)"
       id="path1329" /><path
       d="M 0,0 C 2.1938427,2.1938427 3.0700318,4.0738899 4.375,6.875 6.1627116,10.545909 7.7818868,13.377834 11,16 9.68,16 8.36,16 7,16 3.1103165,11.925093 0.0975697,8.5368121 -0.125,2.75 -0.08375,1.8425 -0.0425,0.935 0,0 Z"
       fill="#ebc24b"
       transform="translate(71,49)"
       id="path1331" /><path
       d="M 0,0 C 2.7403037,1.6577146 4.8647035,3.6243059 7,6 6.67,6.66 6.34,7.32 6,8 5.195625,7.175 4.39125,6.35 3.5625,5.5 0.15488891,2.6495576 -2.5305055,2.44923 -6.875,2.6914063 -9.470312,3.068299 -11.670666,3.797763 -14,5 -11.209385,-1.1792192 -6.3012666,-1.0423854 0,0 Z"
       fill="#564a1d"
       transform="translate(370,7)"
       id="path1333" /><path
       d="M 0,0 C 0.66,0.33 1.32,0.66 2,1 1.2884375,2.485 1.2884375,2.485 0.5625,4 -0.67200298,6.8266657 -1.2635172,9.3076579 -1.5625,12.375 -1.706875,13.57125 -1.85125,14.7675 -2,16 -2.66,16.33 -3.32,16.66 -4,17 -4.027034,15.062577 -4.046411,13.125045 -4.0625,11.1875 -4.074102,10.108555 -4.085703,9.0296094 -4.097656,7.9179687 -4,5 -4,5 -3,2 -2.01,1.34 -1.02,0.68 0,0 Z"
       fill="#caac43"
       transform="translate(200,15)"
       id="path1335" /><path
       d="m 0,0 c 0.33,0 0.66,0 1,0 0,7.92 0,15.84 0,24 -1.98,0.99 -1.98,0.99 -4,2 0.1327734,-0.620039 0.2655469,-1.240078 0.4023437,-1.878906 C -0.99499432,16.084388 -0.41898338,8.170176 0,0 Z"
       fill="#fc9c4e"
       transform="translate(129,28)"
       id="path1337" /><path
       d="M 0,0 C 0.66,0 1.32,0 2,0 2.222623,6.7281627 1.950215,12.539912 0,19 -0.33,19 -0.66,19 -1,19 -1.027262,16.958409 -1.046513,14.91671 -1.0625,12.875 -1.074102,11.738047 -1.085703,10.601094 -1.097656,9.4296875 -1.005327,6.1870844 -0.61389906,3.1806739 0,0 Z"
       fill="#f38c4a"
       transform="translate(279,22)"
       id="path1339" /><path
       d="M 0,0 C 2.2747768,3.5385416 1.9908271,5.7094737 1.125,9.75 0.92132813,10.734844 0.71765625,11.719687 0.5078125,12.734375 0.34023437,13.482031 0.17265625,14.229688 0,15 -0.99,14.34 -1.98,13.68 -3,13 -3.6036319,7.7685235 -2.6383139,4.5071195 0,0 Z"
       fill="#ac8f36"
       transform="translate(73,21)"
       id="path1341" /><path
       d="M 0,0 C 2.1628505,1.0041806 3.9686375,1.9740449 5.8125,3.5 8.6992045,5.4794545 11.627661,6.1569152 15,7 11.780073,8.6099636 8.4816312,8.6057905 5,8 2,5.6875 2,5.6875 0,3 0,2.01 0,1.02 0,0 Z"
       fill="#f3b94a"
       transform="translate(144,62)"
       id="path1343" /><path
       d="M 0,0 C 0.99,0.33 1.98,0.66 3,1 3,1.99 3,2.98 3,4 3.66,4 4.32,4 5,4 5,5.98 5,7.96 5,10 4.01,10.33 3.02,10.66 2,11 0.19769832,7.1701089 -0.19622241,4.2187819 0,0 Z"
       fill="#f8c64e"
       transform="translate(342,21)"
       id="path1345" /><path
       d="M 0,0 C 4,4 4,4 4.4541016,6.0146484 4.4331543,6.7059082 4.412207,7.397168 4.390625,8.109375 4.3777344,8.8634766 4.3648438,9.6175781 4.3515625,10.394531 4.3180469,11.171836 4.2845312,11.949141 4.25,12.75 4.2319531,13.542773 4.2139062,14.335547 4.1953125,15.152344 4.1483308,17.102083 4.0765904,19.051199 4,21 3.67,21 3.34,21 3,21 2.01,14.07 1.02,7.14 0,0 Z"
       fill="#c3753c"
       transform="translate(189,37)"
       id="path1347" /><path
       d="m 0,0 c -2.5503801,2.2443345 -4.2870006,3.0791726 -7.625,4 -3.625739,0.6825752 -3.625739,0.6825752 -5.375,4 -0.390137,1.9896995 -0.732026,3.990199 -1,6 -0.33,0 -0.66,0 -1,0 C -15.608696,6.8173913 -15.608696,6.8173913 -12.8125,3.0625 -8.5716581,-0.04745073 -5.1392268,-0.14683505 0,0 Z"
       fill="#f0c84c"
       transform="translate(27,11)"
       id="path1349" /><path
       d="M 0,0 C 4.95,0 9.9,0 15,0 13.515,2.475 13.515,2.475 12,5 7.0331523,4.3227026 3.5861421,3.5861421 0,0 Z"
       fill="#fca04e"
       transform="translate(17,32)"
       id="path1351" /><path
       d="M 0,0 C 0.99,0.33 1.98,0.66 3,1 3.8789063,3.03125 3.8789063,3.03125 4.5625,5.5 5.2038472,7.9149541 5.2038472,7.9149541 6,10 c 0.66,0.33 1.32,0.66 2,1 0,0.66 0,1.32 0,2 C 6.140625,12.773438 6.140625,12.773438 4,12 2.734375,10.039063 2.734375,10.039063 1.75,7.625 1.4148437,6.8335156 1.0796875,6.0420312 0.734375,5.2265625 0,3 0,3 0,0 Z"
       fill="#fcd455"
       transform="translate(377,21)"
       id="path1353" /><path
       d="M 0,0 C -2.2915134,1.5276756 -4.5940392,2.9936403 -6.9375,4.4375 -9.7290448,6.1751467 -12.418694,7.9564661 -15,10 c 0.473561,-4.2620511 2.846982,-6.2869379 6,-9 2.9736007,-1.2080253 5.8123904,-1.08854471 9,-1 z"
       fill="#edc84d"
       transform="translate(156,9)"
       id="path1355" /><path
       d="m 0,0 c 1.9273491,3.7262083 3.1294021,6.7895275 3.0976563,11.011719 -0.00483,1.135986 -0.00483,1.135986 -0.00977,2.294922 -0.00838,0.785683 -0.016758,1.571367 -0.025391,2.380859 -0.00451,0.797285 -0.00902,1.59457 -0.013672,2.416016 C 3.0370585,20.069043 3.0191235,22.034531 3,24 2.67,24 2.34,24 2,24 1.6602923,21.500722 1.3281197,19.000804 1,16.5 0.90460938,15.803906 0.80921875,15.107813 0.7109375,14.390625 0.0838378,9.5529987 -0.08789528,4.878188 0,0 Z"
       fill="#f3ab4e"
       transform="translate(350,41)"
       id="path1357" /><path
       d="M 0,0 C 3.3511183,2.2340789 4.8155396,3.2621582 5.8125,7.25 5.874375,8.1575 5.93625,9.065 6,10 5.34,10 4.68,10 4,10 3.67,10.99 3.34,11.98 3,13 2.8672266,12.396719 2.7344531,11.793438 2.5976563,11.171875 2.4210547,10.372656 2.2444531,9.5734375 2.0625,8.75 1.8884766,7.9610937 1.7144531,7.1721875 1.5351562,6.359375 1.052444,4.231213 0.53836822,2.1146716 0,0 Z"
       fill="#c5a440"
       transform="translate(121,14)"
       id="path1359" /><path
       d="M 0,0 C 0.33,0 0.66,0 1,0 1.1627604,2.0182292 1.3255208,4.0364583 1.4882812,6.0546875 1.8739304,8.3951922 1.8739304,8.3951922 5,10 c 0,0.66 0,1.32 0,2 0.99,0.33 1.98,0.66 3,1 C 6.35,13.33 4.7,13.66 3,14 0.9375,12.0625 0.9375,12.0625 -1,9 -1.056667,5.9193782 -0.60438257,3.0153435 0,0 Z"
       fill="#e7b140"
       transform="translate(17,59)"
       id="path1361" /><path
       d="M 0,0 C -1.5307967,3.4442925 -3.6165471,6.0951667 -6,9 -6.66,9.99 -7.32,10.98 -8,12 -8.9375,9.9375 -8.9375,9.9375 -9,7 -3.7355372,0 -3.7355372,0 0,0 Z"
       fill="#eec74c"
       transform="translate(83,14)"
       id="path1363" /><path
       d="M 0,0 C 2.5814851,0.35606691 3.8204575,0.83328193 5.75,2.625 7.437548,5.8313412 7.2057605,8.4334851 7,12 6.34,12 5.68,12 5,12 4.731875,10.906875 4.46375,9.81375 4.1875,8.6875 3.0864135,5.2683367 2.5752507,4.2240802 0,2 0,1.34 0,0.68 0,0 Z"
       fill="#fad755"
       transform="translate(176,11)"
       id="path1365" /><path
       d="M 0,0 C 0,0.99 0,1.98 0,3 -1.4573609,3.1949145 -2.9159459,3.3806936 -4.375,3.5625 -5.1871094,3.6669141 -5.9992187,3.7713281 -6.8359375,3.8789063 -9,4 -9,4 -11,3 -12.328609,2.6483093 -13.661583,2.3122972 -15,2 -9.7561491,0.2520497 -5.5267773,-0.19392201 0,0 Z"
       fill="#cdaa40"
       transform="translate(33,9)"
       id="path1367" /><path
       d="M 0,0 C 1.6065676,0.25620684 3.2102483,0.53055871 4.8125,0.8125 6.1524805,1.0387305 6.1524805,1.0387305 7.5195312,1.2695312 10,2 10,2 13,5 9.7,5 6.4,5 3,5 3,4.34 3,3.68 3,3 2.01,3 1.02,3 0,3 0,2.01 0,1.02 0,0 Z"
       fill="#f8c14c"
       transform="translate(201,68)"
       id="path1369" /><path
       d="M 0,0 C 0.33,0 0.66,0 1,0 1.268125,1.216875 1.53625,2.43375 1.8125,3.6875 2.6849436,7.2212104 3.9215694,9.9768282 6,13 5.34,13.66 4.68,14.32 4,15 1.3876821,11.376462 -0.64345352,8.5162554 -1,4 -0.5625,1.6875 -0.5625,1.6875 0,0 Z"
       fill="#e9be48"
       transform="translate(256,55)"
       id="path1371" /><path
       d="M 0,0 C 0.99,0 1.98,0 3,0 3.696855,1.6210103 4.3822286,3.2469607 5.0625,4.875 5.6367773,6.2323828 5.6367773,6.2323828 6.2226562,7.6171875 7,10 7,10 6,12 4.9915755,10.568397 3.9935211,9.1294855 3,7.6875 2.1646875,6.4867383 2.1646875,6.4867383 1.3125,5.2617187 0,3 0,3 0,0 Z"
       fill="#91752e"
       transform="translate(196,62)"
       id="path1373" /><path
       d="M 0,0 C 0.33,0 0.66,0 1,0 0.67,4.95 0.34,9.9 0,15 -0.66,14.67 -1.32,14.34 -2,14 -2.3690205,4.5899772 -2.3690205,4.5899772 0,0 Z"
       fill="#f7d252"
       transform="translate(303,54)"
       id="path1375" /><path
       d="M 0,0 C 0.99,0.33 1.98,0.66 3,1 2.38125,1.7425 1.7625,2.485 1.125,3.25 -0.60437281,5.4880119 -1.8610666,7.4373999 -3,10 -3.66,10 -4.32,10 -5,10 -4.5680236,5.2482602 -3.6723071,3.0799995 0,0 Z"
       fill="#e9c54d"
       transform="translate(320,10)"
       id="path1377" /><path
       d="M 0,0 C 0.99,0.33 1.98,0.66 3,1 2.75,4.3125 2.75,4.3125 2,8 0.68,8.99 -0.64,9.98 -2,11 -1.34,7.37 -0.68,3.74 0,0 Z"
       fill="#fed556"
       transform="translate(63,58)"
       id="path1379" /><path
       d="M 0,0 C 3.63,0.33 7.26,0.66 11,1 10.01,2.485 10.01,2.485 9,4 4.9455436,4.4313251 3.4502904,4.3001936 0,2 0,1.34 0,0.68 0,0 Z"
       fill="#efc54a"
       transform="translate(93,49)"
       id="path1381" /><path
       d="m 0,0 c 4.29,0 8.58,0 13,0 0.33,0.99 0.66,1.98 1,3 C 11.853525,2.8865562 9.7077941,2.7589366 7.5625,2.625 6.3675391,2.5553906 5.1725781,2.4857813 3.9414063,2.4140625 2.9707422,2.2774219 2.0000781,2.1407812 1,2 0.67,1.34 0.34,0.68 0,0 Z"
       fill="#f8d352"
       transform="translate(39,8)"
       id="path1383" /><path
       d="m 0,0 c 0.66,0 1.32,0 2,0 0.66,1.98 1.32,3.96 2,6 2.31,0.33 4.62,0.66 7,1 0,0.33 0,0.66 0,1 C 8.69,8.33 6.38,8.66 4,9 1.4970157,6.061714 0.53069061,3.8209724 0,0 Z"
       fill="#eabe47"
       transform="translate(374,66)"
       id="path1385" /><path
       d="M 0,0 C 0,3 0,3 -1.5,4.6875 -5.1214174,6.5887441 -7.9375783,6.2031211 -12,6 c 0,-0.33 0,-0.66 0,-1 2.31,0 4.62,0 7,0 C -5.33,4.01 -5.66,3.02 -6,2 -4.02,1.34 -2.04,0.68 0,0 Z"
       fill="#fdba50"
       transform="translate(319,68)"
       id="path1387" /><path
       d="M 0,0 C 0.66,0.66 1.32,1.32 2,2 1.01,5.3 0.02,8.6 -1,12 -1.66,11.67 -2.32,11.34 -3,11 -2.5319929,6.9439383 -2.1204679,3.5341132 0,0 Z"
       fill="#f3cc4e"
       transform="translate(314,21)"
       id="path1389" /><path
       d="m 0,0 c 0.99,0.33 1.98,0.66 3,1 0.33,1.32 0.66,2.64 1,4 2.97,0.33 5.94,0.66 9,1 0,0.33 0,0.66 0,1 C 9.6211229,7.2852711 6.3682664,7.450187 3,7 0.81817659,4.5614915 0,3.2678851 0,0 Z"
       fill="#edbe45"
       transform="translate(332,64)"
       id="path1391" /><path
       d="M 0,0 C 11.52164,-0.55353075 11.52164,-0.55353075 17,3 16.67,3.66 16.34,4.32 16,5 14.02,4.34 12.04,3.68 10,3 10,2.34 10,1.68 10,1 6.7,1 3.4,1 0,1 0,0.67 0,0.34 0,0 Z"
       fill="#baa140"
       transform="translate(282,54)"
       id="path1393" /><path
       d="M 0,0 C 0.66,0 1.32,0 2,0 1.690625,0.680625 1.38125,1.36125 1.0625,2.0625 -0.13370649,5.3696591 -0.59005397,8.5154588 -1,12 -1.66,11.67 -2.32,11.34 -3,11 -2.8859041,9.5407731 -2.7583446,8.082594 -2.625,6.625 -2.5553906,5.8128906 -2.4857813,5.0007812 -2.4140625,4.1640625 -2,2 -2,2 0,0 Z"
       fill="#ddbd4a"
       transform="translate(358,10)"
       id="path1395" /><path
       d="M 0,0 C 2.125,0.375 2.125,0.375 4,1 4,1.66 4,2.32 4,3 0.04,4.98 0.04,4.98 -4,7 -2.9259889,4.0848271 -2.2218982,2.2218982 0,0 Z"
       fill="#9d8633"
       transform="translate(202,10)"
       id="path1397" /><path
       d="m 0,0 c 5.6727651,-0.29341888 8.9906725,-0.00559652 14,3 0,0.33 0,0.66 0,1 C 12.415668,3.9123175 10.832464,3.8041267 9.25,3.6875 7.9274219,3.6004883 7.9274219,3.6004883 6.578125,3.5117188 3.6769623,2.9358819 2.2077439,1.9240385 0,0 Z"
       fill="#e1c14b"
       transform="translate(103,8)"
       id="path1399" /><path
       d="m 0,0 c 1.11375,0.3403125 1.11375,0.3403125 2.25,0.6875 -2.52956528,3.0916909 -5.2245461,3.9093133 -9,5 0,-3 0,-3 1.6875,-4.75 C -2.75,-0.3125 -2.75,-0.3125 0,0 Z"
       fill="#fbb94d"
       transform="translate(114.75,67.3125)"
       id="path1401" /><path
       d="M 0,0 C 3.2656651,4.8984976 3.0931149,8.3199891 3,14 -0.26566506,9.1015024 -0.09311493,5.6800109 0,0 Z"
       fill="#dc8a44"
       transform="translate(347,27)"
       id="path1403" /><path
       d="M 0,0 C 2.3655737,2.1330033 3.6296753,3.959494 4.75,6.9375 5.0129687,7.6065234 5.2759375,8.2755469 5.546875,8.9648438 6,11 6,11 5,15 4.34,12.36 3.68,9.72 3,7 2.34,7 1.68,7 1,7 0.67,4.69 0.34,2.38 0,0 Z"
       fill="#633b1d"
       transform="translate(344,18)"
       id="path1405" /><path
       d="M 0,0 C 0.99,0.99 1.98,1.98 3,3 1.25,5.0625 1.25,5.0625 -1,7 -3.25,6.75 -3.25,6.75 -5,6 -3.35,4.02 -1.7,2.04 0,0 Z"
       fill="#fcd052"
       transform="translate(215,65)"
       id="path1407" /><path
       d="m 0,0 c 0.33,0 0.66,0 1,0 0.5871859,3.3444068 1.0586312,6.5993931 1,10 -1.9375,2.625 -1.9375,2.625 -4,4 -0.66,-0.66 -1.32,-1.32 -2,-2 1.32,-0.66 2.64,-1.32 4,-2 C 0,6.7 0,3.4 0,0 Z"
       fill="#c8aa42"
       transform="translate(106,37)"
       id="path1409" /><path
       d="m 0,0 c 1.125,3.75 1.125,3.75 0,6 -0.2275015,1.8705679 -0.40962811,3.7468596 -0.5625,5.625 -0.0837891,1.002891 -0.16757813,2.005781 -0.25390625,3.039063 C -0.87699219,15.434922 -0.93757812,16.205781 -1,17 -1.33,17 -1.66,17 -2,17 -2.05399,14.729426 -2.092787,12.458487 -2.125,10.1875 -2.1482031,8.9229297 -2.1714063,7.6583594 -2.1953125,6.3554687 -2,3 -2,3 0,0 Z"
       fill="#f3cf51"
       transform="translate(136,26)"
       id="path1411" /><path
       d="m 0,0 c 8.5714286,-0.14285714 8.5714286,-0.14285714 12,1 0,0.99 0,1.98 0,3 C 6.06,2.515 6.06,2.515 0,1 0,0.67 0,0.34 0,0 Z"
       fill="#f8d251"
       transform="translate(222,9)"
       id="path1413" /><path
       d="M 0,0 C 0,0.33 0,0.66 0,1 -1.546875,1.3403125 -1.546875,1.3403125 -3.125,1.6875 -7.3440826,2.8647186 -9.8153678,5.0483897 -13,8 -10.641757,0.72875178 -7.4631798,-0.43056807 0,0 Z"
       fill="#ecaa34"
       transform="translate(331,10)"
       id="path1415" /><path
       d="M 0,0 C 2.6790193,2.3188151 3.662044,4.3181447 4.6875,7.6875 4.9388672,8.4957422 5.1902344,9.3039844 5.4492187,10.136719 5.6309766,10.751602 5.8127344,11.366484 6,12 5.34,12 4.68,12 4,12 3.67,10.35 3.34,8.7 3,7 2.34,7 1.68,7 1,7 0.67,4.69 0.34,2.38 0,0 Z"
       fill="#5f3a1c"
       transform="translate(379,18)"
       id="path1417" /><path
       d="M 0,0 C 0.66,0.33 1.32,0.66 2,1 2.3125,3.8125 2.3125,3.8125 2,7 -0.5,8.875 -0.5,8.875 -3,10 -2.01,6.7 -1.02,3.4 0,0 Z"
       fill="#fba74f"
       transform="translate(299,61)"
       id="path1419" /><path
       d="M 0,0 C 0.33,1.32 0.66,2.64 1,4 -0.4375,6.25 -0.4375,6.25 -2,8 -2.99,7.67 -3.98,7.34 -5,7 -3.35,4.69 -1.7,2.38 0,0 Z"
       fill="#fcd053"
       transform="translate(321,61)"
       id="path1421" /><path
       d="M 0,0 C 1,2 1,2 0.0625,5.125 -0.288125,6.07375 -0.63875,7.0225 -1,8 -1.99,8 -2.98,8 -4,8 -4,4.0916113 -2.4943212,2.8840589 0,0 Z"
       fill="#7f6a27"
       transform="translate(25,40)"
       id="path1423" /><path
       d="M 0,0 C 0.33,0 0.66,0 1,0 1,3.3 1,6.6 1,10 0.01,10.33 -0.98,10.66 -2,11 -1,3.5714286 -1,3.5714286 0,0 Z"
       fill="#fe9b4e"
       transform="translate(62,19)"
       id="path1425" /><path
       d="M 0,0 C -0.33,1.65 -0.66,3.3 -1,5 -2.32,5 -3.64,5 -5,5 -5.66,6.32 -6.32,7.64 -7,9 -6.5314986,4.7834876 -4.9455931,0 0,0 Z"
       fill="#988132"
       transform="translate(392,20)"
       id="path1427" /><path
       d="M 0,0 C 0.66,0.33 1.32,0.66 2,1 2.625,4.0625 2.625,4.0625 3,7 2.01,6.67 1.02,6.34 0,6 -0.33,6.99 -0.66,7.98 -1,9 -1.33,7.35 -1.66,5.7 -2,4 -1.34,4 -0.68,4 0,4 0,2.68 0,1.36 0,0 Z"
       fill="#c89d3d"
       transform="translate(377,15)"
       id="path1429" /><path
       d="M 0,0 C 3.2542015,2.8343045 4.5206753,4.6860777 5,9 3.0625,8.4375 3.0625,8.4375 1,7 0.25,3.375 0.25,3.375 0,0 Z"
       fill="#6a4521"
       transform="translate(126,20)"
       id="path1431" /><path
       d="M 0,0 C 1,3 1,3 -0.4375,6.1875 -1.2109375,7.5796875 -1.2109375,7.5796875 -2,9 -2.66,7.68 -3.32,6.36 -4,5 -2.68,3.35 -1.36,1.7 0,0 Z"
       fill="#e6c24a"
       transform="translate(395,13)"
       id="path1433" /><path
       d="M 0,0 C 0.33,0 0.66,0 1,0 1,1.65 1,3.3 1,5 1.66,5 2.32,5 3,5 2.67,6.65 2.34,8.3 2,10 0.4375,8.375 0.4375,8.375 -1,6 -0.6875,2.75 -0.6875,2.75 0,0 Z"
       fill="#a68832"
       transform="translate(304,45)"
       id="path1435" /><path
       d="M 0,0 C 2.375,0.25 2.375,0.25 5,1 6.3125,3.0625 6.3125,3.0625 7,5 6.34,5.66 5.68,6.32 5,7 3.35,4.69 1.7,2.38 0,0 Z"
       fill="#f6d051"
       transform="translate(116,13)"
       id="path1437" /><path
       d="M 0,0 C 2.125,0.9375 2.125,0.9375 4,2 3.34,2 2.68,2 2,2 2.66,3.32 3.32,4.64 4,6 0.83884224,4.630165 0.0072908,4.0109362 -2,1 -1.34,0.67 -0.68,0.34 0,0 Z"
       fill="#dc9a44"
       transform="translate(81,65)"
       id="path1439" /><path
       d="M 0,0 C 0.66,0.33 1.32,0.66 2,1 2.625,4.0625 2.625,4.0625 3,7 2.01,6.67 1.02,6.34 0,6 -0.33,6.66 -0.66,7.32 -1,8 -0.67,5.36 -0.34,2.72 0,0 Z"
       fill="#c69e3f"
       transform="translate(342,15)"
       id="path1441" /></g></svg>
